<?xml version="1.0" encoding="UTF-8" standalone="no"?>
<!-- Created with Inkscape (http://www.inkscape.org/) -->
<svg
   xmlns:dc="http://purl.org/dc/elements/1.1/"
   xmlns:cc="http://creativecommons.org/ns#"
   xmlns:rdf="http://www.w3.org/1999/02/22-rdf-syntax-ns#"
   xmlns:svg="http://www.w3.org/2000/svg"
   xmlns="http://www.w3.org/2000/svg"
   xmlns:sodipodi="http://sodipodi.sourceforge.net/DTD/sodipodi-0.dtd"
   xmlns:inkscape="http://www.inkscape.org/namespaces/inkscape"
   width="800px"
   height="600px"
   id="svg2383"
   sodipodi:version="0.32"
   inkscape:version="0.46"
   sodipodi:docname="what_is_code_review.svg"
   inkscape:output_extension="org.inkscape.output.svg.inkscape">
  <defs
     id="defs2385">
    <inkscape:path-effect
       effect="bend_path"
       id="path-effect3248"
       bendpath="M 480.262,198.563 L 696.7,398.563"
       prop_scale="1"
       bendpath-nodetypes="cc"
       scale_y_rel="false"
       vertical="false" />
    <inkscape:path-effect
       effect="gears"
       id="path-effect3246"
       teeth="10" />
    <inkscape:path-effect
       effect="gears"
       id="path-effect3244"
       teeth="10" />
    <inkscape:path-effect
       effect="gears"
       id="path-effect3242"
       teeth="10" />
    <linearGradient
       id="linearGradient3200">
      <stop
         style="stop-color:#729fcf;stop-opacity:1"
         offset="0"
         id="stop3202" />
      <stop
         style="stop-color:#204a87;stop-opacity:1"
         offset="1"
         id="stop3204" />
    </linearGradient>
    <inkscape:perspective
       sodipodi:type="inkscape:persp3d"
       inkscape:vp_x="110 : 81 : 1"
       inkscape:vp_y="0 : 1000 : 0"
       inkscape:vp_z="910 : 81 : 1"
       inkscape:persp3d-origin="510 : -19 : 1"
       id="perspective2391" />
    <filter
       id="filter3163"
       inkscape:label="filter1" />
    <inkscape:perspective
       id="perspective3469"
       inkscape:persp3d-origin="8 : 5.3333333 : 1"
       inkscape:vp_z="16 : 8 : 1"
       inkscape:vp_y="0 : 1000 : 0"
       inkscape:vp_x="0 : 8 : 1"
       sodipodi:type="inkscape:persp3d" />
  </defs>
  <sodipodi:namedview
     id="base"
     pagecolor="#ffffff"
     bordercolor="#666666"
     borderopacity="1.0"
     inkscape:pageopacity="1"
     inkscape:pageshadow="2"
     inkscape:zoom="1"
     inkscape:cx="488.70542"
     inkscape:cy="290.05096"
     inkscape:current-layer="svg2383"
     inkscape:document-units="px"
     showgrid="false"
     showguides="true"
     inkscape:guide-bbox="true"
     inkscape:window-width="1680"
     inkscape:window-height="981"
     inkscape:window-x="0"
     inkscape:window-y="45">
    <inkscape:grid
       type="xygrid"
       id="grid3306"
       visible="true"
       enabled="true" />
  </sodipodi:namedview>
  <metadata
     id="metadata2388">
    <rdf:RDF>
      <cc:Work
         rdf:about="">
        <dc:format>image/svg+xml</dc:format>
        <dc:type
           rdf:resource="http://purl.org/dc/dcmitype/StillImage" />
      </cc:Work>
    </rdf:RDF>
  </metadata>
  <g
     id="layer1"
     inkscape:label="Background"
     inkscape:groupmode="layer" />
  <path
     style="fill:#e9b96e;fill-opacity:1;stroke:none;stroke-width:2;stroke-linejoin:miter;stroke-miterlimit:4;stroke-dashoffset:0;stroke-opacity:1"
     d="M 0,0 C 266.66667,0 533.33333,0 800,0 C 800,24.333333 800,48.666667 800,73 C 655.28929,60.888006 508.48007,47.299223 364.18207,71.265515 C 245.53755,86.196893 123.59152,86.370946 5.0617568,67.405627 C -5.2952733,65.61926 5.7029899e-16,47.351777 0,38.038088 C 0,25.358725 0,12.679363 0,0 z"
     id="rect3308"
     sodipodi:nodetypes="ccccccc" />
  <g
     id="g3558"
     transform="matrix(0.9850648,-0.1721838,0.1721838,0.9850648,-11.763776,14.378288)">
    <rect
       ry="4"
       rx="4"
       inkscape:export-ydpi="90"
       inkscape:export-xdpi="90"
       inkscape:export-filename="/home/chipx86/src/reviewboard/htdocs/images/favicon.png"
       style="fill:#e9b96e;fill-opacity:1;fill-rule:nonzero;stroke:none;stroke-width:2;stroke-linecap:square;stroke-linejoin:miter;stroke-miterlimit:4;stroke-dasharray:none;stroke-dashoffset:0;stroke-opacity:1"
       id="rect2930"
       width="99.947533"
       height="99.75"
       x="26.92746"
       y="25.125" />
    <rect
       inkscape:export-ydpi="90"
       inkscape:export-xdpi="90"
       inkscape:export-filename="/home/chipx86/src/reviewboard/htdocs/images/favicon.png"
       y="25.125"
       x="26.92746"
       height="28.5"
       width="99.947533"
       id="rect2932"
       style="opacity:0.34065935;fill:#eeeeec;fill-opacity:1;fill-rule:nonzero;stroke:none;stroke-width:2;stroke-linecap:square;stroke-linejoin:miter;stroke-miterlimit:4;stroke-dasharray:none;stroke-dashoffset:0;stroke-opacity:1" />
    <path
       inkscape:export-ydpi="90"
       inkscape:export-xdpi="90"
       inkscape:export-filename="/home/chipx86/src/reviewboard/htdocs/images/favicon.png"
       sodipodi:nodetypes="ccccccccc"
       id="path2936"
       d="M 41.105567,22.789916 C 32.123143,22.789916 24.789916,30.123143 24.789916,39.105567 L 24.789916,110.89443 C 24.789916,119.87685 32.123143,127.21008 41.105567,127.21008 L 112.89443,127.21008 C 121.87686,127.21008 129.21008,119.87685 129.21008,110.89443 L 129.21008,39.105567 C 129.21008,30.123143 121.87686,22.789916 112.89443,22.789916 L 41.105567,22.789916 z"
       style="fill:none;fill-opacity:1;fill-rule:nonzero;stroke:#663f00;stroke-width:6;stroke-linecap:square;stroke-linejoin:miter;stroke-miterlimit:4;stroke-dasharray:none;stroke-dashoffset:0;stroke-opacity:1" />
    <rect
       inkscape:export-ydpi="90"
       inkscape:export-xdpi="90"
       inkscape:export-filename="/home/chipx86/src/reviewboard/htdocs/images/favicon.png"
       style="fill:#fce94f;fill-opacity:1;fill-rule:nonzero;stroke:#9c7f00;stroke-width:2;stroke-linecap:square;stroke-linejoin:miter;stroke-miterlimit:4;stroke-dasharray:none;stroke-dashoffset:0;stroke-opacity:1"
       id="rect2940"
       width="64.125008"
       height="64.125015"
       x="44.9375"
       y="42.9375" />
    <path
       inkscape:export-ydpi="90"
       inkscape:export-xdpi="90"
       inkscape:export-filename="/home/chipx86/src/reviewboard/htdocs/images/favicon.png"
       sodipodi:type="arc"
       style="fill:#3465a4;fill-opacity:1;fill-rule:nonzero;stroke:#204a87;stroke-width:0.23604886;stroke-linecap:square;stroke-linejoin:miter;stroke-miterlimit:4;stroke-dasharray:none;stroke-dashoffset:0;stroke-opacity:1"
       id="path2942"
       sodipodi:cx="5.7663369"
       sodipodi:cy="4.8277225"
       sodipodi:rx="1.2613862"
       sodipodi:ry="1.2613862"
       d="M 7.0277231,4.8277225 A 1.2613862,1.2613862 0 1 1 4.5049508,4.8277225 A 1.2613862,1.2613862 0 1 1 7.0277231,4.8277225 z"
       transform="matrix(8.472822,0,0,8.472822,-0.35712,5.59559)" />
    <rect
       inkscape:export-ydpi="90"
       inkscape:export-xdpi="90"
       inkscape:export-filename="/home/chipx86/src/reviewboard/htdocs/images/favicon.png"
       style="opacity:0.08791211;fill:#2e3436;fill-opacity:1;fill-rule:nonzero;stroke:none;stroke-width:2;stroke-linecap:square;stroke-linejoin:miter;stroke-miterlimit:4;stroke-dasharray:none;stroke-dashoffset:0;stroke-opacity:1"
       id="rect2944"
       width="35.625"
       height="7.125"
       x="62.75"
       y="53.625" />
    <rect
       inkscape:export-ydpi="90"
       inkscape:export-xdpi="90"
       inkscape:export-filename="/home/chipx86/src/reviewboard/htdocs/images/favicon.png"
       y="67.875"
       x="55.625"
       height="7.125"
       width="42.75"
       id="rect2946"
       style="opacity:0.08791211;fill:#2e3436;fill-opacity:1;fill-rule:nonzero;stroke:none;stroke-width:2;stroke-linecap:square;stroke-linejoin:miter;stroke-miterlimit:4;stroke-dasharray:none;stroke-dashoffset:0;stroke-opacity:1" />
    <rect
       inkscape:export-ydpi="90"
       inkscape:export-xdpi="90"
       inkscape:export-filename="/home/chipx86/src/reviewboard/htdocs/images/favicon.png"
       style="opacity:0.08791211;fill:#2e3436;fill-opacity:1;fill-rule:nonzero;stroke:none;stroke-width:2;stroke-linecap:square;stroke-linejoin:miter;stroke-miterlimit:4;stroke-dasharray:none;stroke-dashoffset:0;stroke-opacity:1"
       id="rect2948"
       width="42.75"
       height="7.125"
       x="55.625"
       y="82.125" />
  </g>
  <g
     inkscape:groupmode="layer"
     id="layer2"
     inkscape:label="Title">
    <path
       style="font-size:131.59124756px;font-style:normal;font-variant:normal;font-weight:normal;font-stretch:normal;fill:#dcdfd9;fill-opacity:1;stroke:none;stroke-width:1px;stroke-linecap:butt;stroke-linejoin:miter;stroke-opacity:1;font-family:Bitstream Vera Serif;-inkscape-font-specification:Bitstream Vera Serif"
       d="M 661.29369,231.94697 C 661.63634,230.06231 662.62156,228.43455 664.24935,227.06371 C 665.96274,225.6074 667.80467,224.87919 669.77516,224.87909 C 671.83123,224.87919 673.33047,225.77874 674.2729,227.57773 C 675.30091,229.37694 675.55793,231.47588 675.04395,233.87458 C 674.18719,238.07257 672.43092,241.67077 669.77516,244.66918 C 667.20498,247.66776 663.2641,250.66625 657.95251,253.66467 C 656.92442,253.92176 656.71024,253.57908 657.30997,252.63661 C 660.99381,249.38118 663.34977,246.85388 664.37786,245.0547 C 665.40588,243.17001 665.96274,241.7136 666.04845,240.68546 C 666.13408,239.57182 665.74856,238.88645 664.89189,238.62934 C 664.03514,238.28675 663.13559,237.51571 662.19324,236.31622 C 661.25082,235.03124 660.95097,233.57483 661.29369,231.94697 M 685.32451,231.94697 C 685.66714,230.06231 686.65236,228.43455 688.28018,227.06371 C 689.99354,225.6074 691.83547,224.87919 693.80598,224.87909 C 695.86202,224.87919 697.36127,225.77874 698.30373,227.57773 C 699.33171,229.37694 699.58873,231.47588 699.07477,233.87458 C 698.21799,238.07257 696.46172,241.67077 693.80598,244.66918 C 691.23577,247.66776 687.29489,250.66625 681.98333,253.66467 C 680.95522,253.92176 680.74104,253.57908 681.34079,252.63661 C 685.02461,249.38118 687.38057,246.85388 688.40868,245.0547 C 689.43668,243.17001 689.99354,241.7136 690.07927,240.68546 C 690.16488,239.57182 689.77936,238.88645 688.92271,238.62934 C 688.06594,238.28675 687.16639,237.51571 686.22406,236.31622 C 685.28162,235.03124 684.98177,233.57483 685.32451,231.94697"
       id="text3449" />
    <path
       id="path3454"
       d="M 112.01659,186.67944 C 111.67394,188.5641 110.68872,190.19186 109.06093,191.5627 C 107.34754,193.01901 105.50561,193.74722 103.53512,193.74732 C 101.47905,193.74722 99.97981,192.84767 99.03738,191.04868 C 98.00937,189.24947 97.75235,187.15053 98.26633,184.75183 C 99.12309,180.55384 100.87936,176.95564 103.53512,173.95723 C 106.1053,170.95865 110.04618,167.96016 115.35777,164.96174 C 116.38586,164.70465 116.60004,165.04733 116.00031,165.9898 C 112.31647,169.24523 109.96051,171.77253 108.93242,173.57171 C 107.9044,175.4564 107.34754,176.91281 107.26183,177.94095 C 107.1762,179.05459 107.56172,179.73996 108.41839,179.99707 C 109.27514,180.33966 110.17469,181.1107 111.11704,182.31019 C 112.05946,183.59517 112.35931,185.05158 112.01659,186.67944 M 87.98577,186.67944 C 87.64314,188.5641 86.65792,190.19186 85.0301,191.5627 C 83.31674,193.01901 81.47481,193.74722 79.5043,193.74732 C 77.44826,193.74722 75.94901,192.84767 75.00655,191.04868 C 73.97857,189.24947 73.72155,187.15053 74.23551,184.75183 C 75.09229,180.55384 76.84856,176.95564 79.5043,173.95723 C 82.07451,170.95865 86.01539,167.96016 91.32695,164.96174 C 92.35506,164.70465 92.56924,165.04733 91.96949,165.9898 C 88.28567,169.24523 85.92971,171.77253 84.9016,173.57171 C 83.8736,175.4564 83.31674,176.91281 83.23101,177.94095 C 83.1454,179.05459 83.53092,179.73996 84.38757,179.99707 C 85.24434,180.33966 86.14389,181.1107 87.08622,182.31019 C 88.02866,183.59517 88.32851,185.05158 87.98577,186.67944"
       style="font-size:131.59124756px;font-style:normal;font-variant:normal;font-weight:normal;font-stretch:normal;fill:#dcdfd9;fill-opacity:1;stroke:none;stroke-width:1px;stroke-linecap:butt;stroke-linejoin:miter;stroke-opacity:1;font-family:Bitstream Vera Serif;-inkscape-font-specification:Bitstream Vera Serif" />
    <text
       xml:space="preserve"
       style="font-size:24px;font-style:normal;font-weight:normal;fill:#000000;fill-opacity:1;stroke:none;stroke-width:1px;stroke-linecap:butt;stroke-linejoin:miter;stroke-opacity:1;font-family:Bitstream Vera Sans"
       x="152"
       y="45"
       id="text3573"><tspan
         sodipodi:role="line"
         id="tspan3575"
         x="152"
         y="45">What is code review?</tspan></text>
    <text
       xml:space="preserve"
       style="font-size:16px;font-style:normal;font-weight:normal;fill:#000000;fill-opacity:1;stroke:none;stroke-width:1px;stroke-linecap:butt;stroke-linejoin:miter;stroke-opacity:1;font-family:Bitstream Vera Sans"
       x="92.986595"
       y="376.85925"
       id="text3599"
       transform="scale(0.96879,1.0322154)"><tspan
         sodipodi:role="line"
         x="92.986595"
         y="376.85925"
         id="tspan4314"><tspan
   style="font-style:italic"
   id="tspan3504">Humans </tspan>look over your code to find your mistakes.</tspan></text>
    <path
       sodipodi:type="arc"
       style="opacity:1;fill:#000000;fill-opacity:1;stroke:#d3d7cf;stroke-width:1;stroke-linejoin:miter;stroke-miterlimit:4;stroke-dasharray:none;stroke-dashoffset:0;stroke-opacity:1"
       id="path4316"
       sodipodi:cx="81.5"
       sodipodi:cy="177.5"
       sodipodi:rx="6.5"
       sodipodi:ry="6.5"
       d="M 88,177.5 A 6.5,6.5 0 1 1 75,177.5 A 6.5,6.5 0 1 1 88,177.5 z"
       transform="matrix(0.7142857,0,0,0.7142857,19.285714,255.71429)" />
    <path
       transform="matrix(0.7142857,0,0,0.7142857,19.285714,295.71429)"
       d="M 88,177.5 A 6.5,6.5 0 1 1 75,177.5 A 6.5,6.5 0 1 1 88,177.5 z"
       sodipodi:ry="6.5"
       sodipodi:rx="6.5"
       sodipodi:cy="177.5"
       sodipodi:cx="81.5"
       id="path4322"
       style="opacity:1;fill:#000000;fill-opacity:1;stroke:#d3d7cf;stroke-width:1;stroke-linejoin:miter;stroke-miterlimit:4;stroke-dasharray:none;stroke-dashoffset:0;stroke-opacity:1"
       sodipodi:type="arc" />
    <text
       transform="scale(0.96879,1.0322154)"
       id="text4326"
       y="414.64191"
       x="92.986595"
       style="font-size:16px;font-style:normal;font-weight:normal;fill:#000000;fill-opacity:1;stroke:none;stroke-width:1px;stroke-linecap:butt;stroke-linejoin:miter;stroke-opacity:1;font-family:Bitstream Vera Sans"
       xml:space="preserve"><tspan
         id="tspan4330"
         y="414.64191"
         x="92.986595"
         sodipodi:role="line"><tspan
   style="font-style:italic"
   id="tspan3502"><tspan
   style="font-style:normal"
   id="tspan4833">Mistakes are caught </tspan>during</tspan> the development phase, <tspan
   style="font-style:italic;font-weight:normal"
   id="tspan3494">before</tspan> anybody is affected.</tspan></text>
    <text
       xml:space="preserve"
       style="font-size:16px;font-style:normal;font-weight:normal;fill:#000000;fill-opacity:1;stroke:none;stroke-width:1px;stroke-linecap:butt;stroke-linejoin:miter;stroke-opacity:1;font-family:Bitstream Vera Sans"
       x="117"
       y="193"
       id="text3437"><tspan
         sodipodi:role="line"
         id="tspan3439"
         x="117"
         y="193"
         style="font-weight:normal;text-align:justify;text-anchor:start;-inkscape-font-specification:Bitstream Vera Sans">Code review is systematic examination (often as peer review) of</tspan><tspan
         sodipodi:role="line"
         x="117"
         y="213"
         id="tspan3441"
         style="font-weight:normal;text-align:justify;text-anchor:start;-inkscape-font-specification:Bitstream Vera Sans">computer source code intended to find and fix mistakes overlooked</tspan><tspan
         sodipodi:role="line"
         x="117"
         y="233"
         id="tspan3443"
         style="font-weight:normal;text-align:justify;text-anchor:start;-inkscape-font-specification:Bitstream Vera Sans">in the initial development phase, improving both the overall quality</tspan><tspan
         sodipodi:role="line"
         x="117"
         y="253"
         id="tspan3468"
         style="font-weight:normal;text-align:justify;text-anchor:start;-inkscape-font-specification:Bitstream Vera Sans">of software and the developers' skills.</tspan></text>
    <text
       xml:space="preserve"
       style="font-size:16px;font-style:normal;font-weight:normal;fill:#000000;fill-opacity:1;stroke:none;stroke-width:1px;stroke-linecap:butt;stroke-linejoin:miter;stroke-opacity:1;font-family:Bitstream Vera Sans"
       x="549"
       y="275"
       id="text3445"><tspan
         sodipodi:role="line"
         id="tspan3447"
         x="549"
         y="275"
         style="-inkscape-font-specification:Bitstream Vera Sans">— Wikipedia</tspan></text>
    <path
       sodipodi:type="arc"
       style="opacity:1;fill:#000000;fill-opacity:1;stroke:#d3d7cf;stroke-width:1;stroke-linejoin:miter;stroke-miterlimit:4;stroke-dasharray:none;stroke-dashoffset:0;stroke-opacity:1"
       id="path3506"
       sodipodi:cx="81.5"
       sodipodi:cy="177.5"
       sodipodi:rx="6.5"
       sodipodi:ry="6.5"
       d="M 88,177.5 A 6.5,6.5 0 1 1 75,177.5 A 6.5,6.5 0 1 1 88,177.5 z"
       transform="matrix(0.7142857,0,0,0.7142857,19.285714,335.71429)" />
    <text
       xml:space="preserve"
       style="font-size:16px;font-style:normal;font-weight:normal;fill:#000000;fill-opacity:1;stroke:none;stroke-width:1px;stroke-linecap:butt;stroke-linejoin:miter;stroke-opacity:1;font-family:Bitstream Vera Sans"
       x="92.986595"
       y="453.39349"
       id="text3508"
       transform="scale(0.96879,1.0322154)"><tspan
         sodipodi:role="line"
         x="92.986595"
         y="453.39349"
         id="tspan3510">Helps contributors to provide better patches.</tspan></text>
    <path
       transform="matrix(0.7142857,0,0,0.7142857,19.285714,375.71429)"
       d="M 88,177.5 A 6.5,6.5 0 1 1 75,177.5 A 6.5,6.5 0 1 1 88,177.5 z"
       sodipodi:ry="6.5"
       sodipodi:rx="6.5"
       sodipodi:cy="177.5"
       sodipodi:cx="81.5"
       id="path3516"
       style="opacity:1;fill:#000000;fill-opacity:1;stroke:#d3d7cf;stroke-width:1;stroke-linejoin:miter;stroke-miterlimit:4;stroke-dasharray:none;stroke-dashoffset:0;stroke-opacity:1"
       sodipodi:type="arc" />
    <text
       transform="scale(0.96879,1.0322154)"
       id="text3518"
       y="492.14508"
       x="92.986595"
       style="font-size:16px;font-style:normal;font-weight:normal;fill:#000000;fill-opacity:1;stroke:none;stroke-width:1px;stroke-linecap:butt;stroke-linejoin:miter;stroke-opacity:1;font-family:Bitstream Vera Sans"
       xml:space="preserve"><tspan
         y="492.14508"
         x="92.986595"
         sodipodi:role="line"
         id="tspan2438"><tspan
   style="font-style:italic"
   id="tspan3522">Anybody </tspan>can review code, not just core developers.</tspan></text>
    <flowRoot
       xml:space="preserve"
       id="flowRoot2440"
       style="fill:black;stroke:none;stroke-opacity:1;stroke-width:1px;stroke-linejoin:miter;stroke-linecap:butt;fill-opacity:1;font-family:Bitstream Vera Sans;font-style:normal;font-weight:normal;font-size:12px"><flowRegion
         id="flowRegion2442"><rect
           id="rect2444"
           width="43"
           height="30"
           x="490"
           y="484" /></flowRegion><flowPara
         id="flowPara2446" /></flowRoot>    <text
       transform="scale(0.96879,1.0322154)"
       id="text4825"
       y="338.10767"
       x="72.342285"
       style="font-size:16px;font-style:normal;font-weight:normal;fill:#000000;fill-opacity:1;stroke:none;stroke-width:1px;stroke-linecap:butt;stroke-linejoin:miter;stroke-opacity:1;font-family:Bitstream Vera Sans"
       xml:space="preserve"><tspan
         id="tspan4827"
         y="338.10767"
         x="72.342285"
         sodipodi:role="line"
         style="font-weight:bold;font-size:18">Ideally...</tspan></text>
  </g>
  <rect
     style="opacity:1;fill:#e9b96e;fill-opacity:1;stroke:none;stroke-width:6;stroke-linejoin:miter;stroke-miterlimit:4;stroke-dasharray:none;stroke-dashoffset:0;stroke-opacity:1"
     id="rect3579"
     width="800"
     height="34"
     x="-5.6843419e-14"
     y="566" />
  <text
     xml:space="preserve"
     style="font-size:16px;font-style:normal;font-weight:normal;fill:#000000;fill-opacity:1;stroke:none;stroke-width:1px;stroke-linecap:butt;stroke-linejoin:miter;stroke-opacity:1;font-family:Bitstream Vera Sans"
     x="9"
     y="589"
     id="text3583"><tspan
       sodipodi:role="line"
       id="tspan3585"
       x="9"
       y="589">Review Board - http://www.review-board.org/</tspan></text>
</svg>
