<?xml version="1.0" encoding="UTF-8" standalone="no"?>
<!-- Created with Inkscape (http://www.inkscape.org/) -->
<svg
   xmlns:svg="http://www.w3.org/2000/svg"
   xmlns="http://www.w3.org/2000/svg"
   xmlns:sodipodi="http://sodipodi.sourceforge.net/DTD/sodipodi-0.dtd"
   xmlns:inkscape="http://www.inkscape.org/namespaces/inkscape"
   width="180"
   height="94.87249"
   id="svg3820"
   sodipodi:version="0.32"
   inkscape:version="0.45+0.46pre3+devel"
   version="1.0"
   sodipodi:docname="Cisco_logo.svg"
   inkscape:output_extension="org.inkscape.output.svg.inkscape">
  <defs
     id="defs3822" />
  <sodipodi:namedview
     id="base"
     pagecolor="#ffffff"
     bordercolor="#666666"
     borderopacity="1.0"
     gridtolerance="10000"
     guidetolerance="10"
     objecttolerance="10"
     inkscape:pageopacity="0.0"
     inkscape:pageshadow="2"
     inkscape:zoom="1.979899"
     inkscape:cx="88.827646"
     inkscape:cy="-4.3453696"
     inkscape:document-units="px"
     inkscape:current-layer="layer1"
     showgrid="false"
     inkscape:window-width="811"
     inkscape:window-height="667"
     inkscape:window-x="110"
     inkscape:window-y="99" />
  <g
     inkscape:label="Layer 1"
     inkscape:groupmode="layer"
     id="layer1"
     transform="translate(-54.99988,-89.779363)">
    <g
       id="g4042">
      <g
         id="g4011">
        <g
           id="g2892"
           transform="matrix(2.3682377,0,0,-2.3682377,128.3346,109.94501)">
          <path
             d="M 0,0 C 0,0.862 -0.704,1.563 -1.567,1.563 C -2.431,1.563 -3.135,0.862 -3.135,0 L -3.135,-7.595 C -3.135,-8.462 -2.431,-9.161 -1.567,-9.161 C -0.704,-9.161 0,-8.462 0,-7.595 L 0,0 z"
             style="fill:#15495d;fill-opacity:1;fill-rule:nonzero;stroke:none"
             id="path2894" />
        </g>
        <g
           id="g2880"
           transform="matrix(2.3682377,0,0,-2.3682377,67.167515,120.1533)">
          <path
             d="M 0,0 C 0,0.862 -0.704,1.561 -1.567,1.561 C -2.43,1.561 -3.135,0.862 -3.135,0 L -3.135,-3.284 C -3.135,-4.151 -2.43,-4.851 -1.567,-4.851 C -0.704,-4.851 0,-4.151 0,-3.284 L 0,0 z"
             style="fill:#15495d;fill-opacity:1;fill-rule:nonzero;stroke:none"
             id="path2882" />
        </g>
        <g
           id="g2884"
           transform="matrix(2.3682377,0,0,-2.3682377,87.556621,109.94501)">
          <path
             d="M 0,0 C 0,0.862 -0.704,1.563 -1.567,1.563 C -2.431,1.563 -3.135,0.862 -3.135,0 L -3.135,-7.595 C -3.135,-8.462 -2.431,-9.161 -1.567,-9.161 C -0.704,-9.161 0,-8.462 0,-7.595 L 0,0 z"
             style="fill:#15495d;fill-opacity:1;fill-rule:nonzero;stroke:none"
             id="path2886" />
        </g>
        <g
           id="g2888"
           transform="matrix(2.3682377,0,0,-2.3682377,107.94549,95.978568)">
          <path
             d="M 0,0 C 0,0.862 -0.704,1.562 -1.567,1.562 C -2.431,1.562 -3.135,0.862 -3.135,0 L -3.135,-16.613 C -3.135,-17.48 -2.431,-18.18 -1.567,-18.18 C -0.704,-18.18 0,-17.48 0,-16.613 L 0,0 z"
             style="fill:#15495d;fill-opacity:1;fill-rule:nonzero;stroke:none"
             id="path2890" />
        </g>
        <g
           id="g2896"
           transform="matrix(2.3682377,0,0,-2.3682377,148.70049,120.1533)">
          <path
             d="M 0,0 C 0,0.862 -0.699,1.561 -1.558,1.561 C -2.421,1.561 -3.125,0.862 -3.125,0 L -3.125,-3.284 C -3.125,-4.151 -2.421,-4.851 -1.558,-4.851 C -0.699,-4.851 0,-4.151 0,-3.284 L 0,0 z"
             style="fill:#15495d;fill-opacity:1;fill-rule:nonzero;stroke:none"
             id="path2898" />
        </g>
        <g
           id="g2900"
           transform="matrix(2.3682377,0,0,-2.3682377,169.09883,109.94501)">
          <path
             d="M 0,0 C 0,0.862 -0.699,1.563 -1.563,1.563 C -2.424,1.563 -3.125,0.862 -3.125,0 L -3.125,-7.595 C -3.125,-8.462 -2.424,-9.161 -1.563,-9.161 C -0.699,-9.161 0,-8.462 0,-7.595 L 0,0 z"
             style="fill:#15495d;fill-opacity:1;fill-rule:nonzero;stroke:none"
             id="path2902" />
        </g>
        <g
           id="g2904"
           transform="matrix(2.3682377,0,0,-2.3682377,189.50168,95.978568)">
          <path
             d="M 0,0 C 0,0.862 -0.699,1.562 -1.563,1.562 C -2.426,1.562 -3.125,0.862 -3.125,0 L -3.125,-16.613 C -3.125,-17.48 -2.426,-18.18 -1.563,-18.18 C -0.699,-18.18 0,-17.48 0,-16.613 L 0,0 z"
             style="fill:#15495d;fill-opacity:1;fill-rule:nonzero;stroke:none"
             id="path2906" />
        </g>
        <g
           id="g2908"
           transform="matrix(2.3682377,0,0,-2.3682377,209.90002,109.94501)">
          <path
             d="M 0,0 C 0,0.862 -0.699,1.563 -1.582,1.563 C -2.445,1.563 -3.145,0.862 -3.145,0 L -3.145,-7.595 C -3.145,-8.462 -2.445,-9.161 -1.582,-9.161 C -0.699,-9.161 0,-8.462 0,-7.595 L 0,0 z"
             style="fill:#15495d;fill-opacity:1;fill-rule:nonzero;stroke:none"
             id="path2910" />
        </g>
        <g
           id="g2912"
           transform="matrix(2.3682377,0,0,-2.3682377,230.25668,120.1533)">
          <path
             d="M 0,0 C 0,0.862 -0.701,1.561 -1.563,1.561 C -2.426,1.561 -3.127,0.862 -3.127,0 L -3.127,-3.284 C -3.127,-4.151 -2.426,-4.851 -1.563,-4.851 C -0.701,-4.851 0,-4.151 0,-3.284 L 0,0 z"
             style="fill:#15495d;fill-opacity:1;fill-rule:nonzero;stroke:none"
             id="path2914" />
        </g>
      </g>
      <g
         id="g4031">
        <g
           id="g2864"
           transform="matrix(2.3682377,0,0,-2.3682377,175.73179,160.48534)">
          <path
             d="M 0,0 C -0.129,0.066 -1.146,0.668 -2.656,0.668 C -4.697,0.668 -6.113,-0.753 -6.113,-2.669 C -6.113,-4.528 -4.758,-6.009 -2.656,-6.009 C -1.172,-6.009 -0.139,-5.42 0,-5.345 L 0,-8.703 C -0.396,-8.814 -1.475,-9.148 -2.877,-9.148 C -6.428,-9.148 -9.545,-6.7 -9.545,-2.669 C -9.545,1.067 -6.725,3.807 -2.877,3.807 C -1.396,3.807 -0.299,3.446 0,3.358 L 0,0 z"
             style="fill:#c5112e;fill-opacity:1;fill-rule:nonzero;stroke:none"
             id="path2866" />
        </g>
        <g
           id="g2868"
           transform="matrix(2.3682377,0,0,-2.3682377,97.69102,160.48534)">
          <path
             d="M 0,0 C -0.127,0.066 -1.143,0.668 -2.652,0.668 C -4.697,0.668 -6.112,-0.753 -6.112,-2.669 C -6.112,-4.528 -4.756,-6.009 -2.652,-6.009 C -1.168,-6.009 -0.136,-5.42 0,-5.345 L 0,-8.703 C -0.393,-8.814 -1.469,-9.148 -2.879,-9.148 C -6.428,-9.148 -9.541,-6.7 -9.541,-2.669 C -9.541,1.067 -6.721,3.807 -2.879,3.807 C -1.394,3.807 -0.297,3.446 0,3.358 L 0,0 z"
             style="fill:#c5112e;fill-opacity:1;fill-rule:nonzero;stroke:none"
             id="path2870" />
        </g>
        <g
           id="g2872"
           transform="matrix(2.3682377,0,0,-2.3682377,214.90955,166.80593)">
          <path
             d="M 0,0 C 0,-3.579 -2.764,-6.479 -6.611,-6.479 C -10.459,-6.479 -13.219,-3.579 -13.219,0 C -13.219,3.573 -10.459,6.476 -6.611,6.476 C -2.764,6.476 0,3.573 0,0 M -6.611,3.29 C -8.484,3.29 -9.875,1.816 -9.875,0 C -9.875,-1.82 -8.484,-3.293 -6.611,-3.293 C -4.74,-3.293 -3.346,-1.82 -3.346,0 C -3.346,1.816 -4.74,3.29 -6.611,3.29"
             style="fill:#c5112e;fill-opacity:1;fill-rule:nonzero;stroke:none"
             id="path2874" />
        </g>
        <g
           id="g2876"
           transform="matrix(2.3682377,0,0,-2.3682377,143.7999,158.73)">
          <path
             d="M 0,0 C -0.047,0.015 -1.376,0.382 -2.468,0.382 C -3.733,0.382 -4.421,-0.042 -4.421,-0.644 C -4.421,-1.405 -3.493,-1.671 -2.974,-1.835 L -2.103,-2.112 C -0.054,-2.764 0.88,-4.167 0.88,-5.691 C 0.88,-8.834 -1.884,-9.89 -4.3,-9.89 C -5.979,-9.89 -7.552,-9.581 -7.707,-9.548 L -7.707,-6.669 C -7.429,-6.739 -6.105,-7.134 -4.726,-7.134 C -3.155,-7.134 -2.433,-6.675 -2.433,-5.966 C -2.433,-5.332 -3.058,-4.966 -3.841,-4.72 C -4.032,-4.656 -4.319,-4.566 -4.515,-4.502 C -6.273,-3.946 -7.739,-2.913 -7.739,-0.842 C -7.739,1.498 -5.987,3.069 -3.077,3.069 C -1.54,3.069 -0.094,2.696 0,2.671 L 0,0 z"
             style="fill:#c5112e;fill-opacity:1;fill-rule:nonzero;stroke:none"
             id="path2878" />
        </g>
        <path
           d="M 115.44452,181.62412 L 107.96799,181.62412 L 107.96799,151.9951 L 115.44452,151.9951 L 115.44452,181.62412 z"
           style="fill:#c5112e;fill-opacity:1;fill-rule:nonzero;stroke:none"
           id="path2854" />
      </g>
      <g
         transform="matrix(2.3682377,0,0,-2.3682377,225.97822,177.72199)"
         id="g2916">
        <path
           id="path2918"
           style="fill:#c5112e;fill-opacity:1;fill-rule:nonzero;stroke:none"
           d="M 0,0 L 0,-0.196 L -0.558,-0.196 L -0.558,-1.647 L -0.787,-1.647 L -0.787,-0.196 L -1.348,-0.196 L -1.348,0 L 0,0 z" />
        <path
           id="path2922"
           style="fill:#c5112e;fill-opacity:1;fill-rule:nonzero;stroke:none"
           d="M 0,0 L 0.359,0 L 0.852,-1.351 L 0.86,-1.351 L 1.337,0 L 1.689,0 L 1.689,-1.647 L 1.454,-1.647 L 1.454,-0.297 L 1.446,-0.297 L 0.946,-1.647 L 0.728,-1.647 L 0.241,-0.297 L 0.23,-0.297 L 0.23,-1.647 L 0,-1.647 L 0,0 z" />
      </g>
    </g>
  </g>
</svg>
