<?xml version="1.0" encoding="UTF-8" standalone="no"?>
<svg
   xmlns:dc="http://purl.org/dc/elements/1.1/"
   xmlns:cc="http://creativecommons.org/ns#"
   xmlns:rdf="http://www.w3.org/1999/02/22-rdf-syntax-ns#"
   xmlns:svg="http://www.w3.org/2000/svg"
   xmlns="http://www.w3.org/2000/svg"
   xmlns:sodipodi="http://sodipodi.sourceforge.net/DTD/sodipodi-0.dtd"
   xmlns:inkscape="http://www.inkscape.org/namespaces/inkscape"
   xml:space="preserve"
   width="180"
   height="160"
   viewBox="0 0 180 160"
   color-interpolation-filters="sRGB"
   id="root"
   version="1.1"
   inkscape:version="0.47 r22583"
   sodipodi:docname="Digium logo.svg"><metadata
   id="metadata78"><rdf:RDF><cc:Work
       rdf:about=""><dc:format>image/svg+xml</dc:format><dc:type
         rdf:resource="http://purl.org/dc/dcmitype/StillImage" /><dc:title>Digium, Inc. logo</dc:title><dc:rights><cc:Agent><dc:title>All rights reserved</dc:title></cc:Agent></dc:rights></cc:Work></rdf:RDF></metadata><sodipodi:namedview
   pagecolor="#ffffff"
   bordercolor="#666666"
   borderopacity="1"
   objecttolerance="10"
   gridtolerance="10"
   guidetolerance="10"
   inkscape:pageopacity="0"
   inkscape:pageshadow="2"
   inkscape:window-width="1172"
   inkscape:window-height="738"
   id="namedview76"
   showgrid="false"
   units="px"
   inkscape:zoom="1"
   inkscape:cx="199.3599"
   inkscape:cy="-18.908931"
   inkscape:window-x="17"
   inkscape:window-y="0"
   inkscape:window-maximized="0"
   inkscape:current-layer="root" />
  <title
   id="title3">Digium, Inc. logo</title>
  <defs
   id="defs5"><inkscape:perspective
   sodipodi:type="inkscape:persp3d"
   inkscape:vp_x="0 : 306 : 1"
   inkscape:vp_y="0 : 1000 : 0"
   inkscape:vp_z="792 : 306 : 1"
   inkscape:persp3d-origin="396 : 204 : 1"
   id="perspective80" />
    <style
   type="text/css"
   id="style7">

text{unicode-bidi:bidi-override}
clipPath{shape-rendering:crispEdges}
image{shape-rendering:crispEdges}

    </style>
    <clipPath
   id="id3">
      <path
   clip-rule="nonzero"
   d="M 12,60 H 780 V 552 H 12 z"
   id="path10" />
    </clipPath>
    <clipPath
   id="id2">
      <rect
   width="792"
   height="612"
   y="0"
   x="0"
   id="rect13" />
    </clipPath>
  </defs>
  <defs
   id="defs15" />
  <g
   id="g17"
   transform="matrix(0.24914172,0,0,0.24914172,-8.7635822,2.395107)">
    <g
   transform="matrix(1,0,0,-1,0,612)"
   clip-path="url(#id2)"
   id="main">
      <g
   clip-path="url(#id3)"
   id="g20">
        <path
   d="m 72.0424,152.2507 0,-46.2874 6.93486,0 0,46.2874 17.37841,0 0,5.8402 -41.69015,0 0,-5.8402 z"
   id="path22"
   style="fill:#9a8b79;fill-rule:nonzero;stroke:none" />
        <path
   d="m 98.18053,158.0912 0,-52.1291 6.20507,0 0,21.3191 c 0,1.704 0.2198,3.2614 0.658,4.6706 0.4871,1.4627 1.1925,2.7269 2.1178,3.7988 0.9237,1.0688 2.0688,1.8978 3.4308,2.4826 1.4123,0.5848 3.0658,0.8749 4.9652,0.8749 2.3849,0 4.2584,-0.681 5.6218,-2.0429 1.3635,-1.3635 2.046,-3.214 2.046,-5.55 l 0,-25.5531 6.2035,0 0,24.8247 c 0,2.0429 -0.2168,3.8919 -0.6566,5.547 -0.3893,1.7055 -1.0947,3.1636 -2.1161,4.3805 -1.023,1.2184 -2.3621,2.1666 -4.0156,2.8475 -1.6551,0.6825 -3.724,1.023 -6.2066,1.023 -1.1192,0 -2.2872,-0.1221 -3.5041,-0.3664 -1.168,-0.2428 -2.3116,-0.6321 -3.4323,-1.1665 -1.0703,-0.4871 -2.0444,-1.1451 -2.9208,-1.9727 -0.8749,-0.7787 -1.5574,-1.7513 -2.0444,-2.9193 l -0.1466,0 0,19.9313 z"
   id="path24"
   style="fill:#9a8b79;fill-rule:evenodd;stroke:none" />
        <path
   d="m 168.0539,117.9343 -6.1333,0 c -0.5344,-2.4811 -1.6536,-4.3317 -3.3575,-5.5485 -1.6551,-1.2169 -3.7972,-1.8246 -6.4264,-1.8246 -2.0445,0 -3.8202,0.3405 -5.3302,1.0214 -1.507,0.681 -2.7483,1.5818 -3.7224,2.701 -0.9742,1.1696 -1.6796,2.4842 -2.1193,3.9438 -0.4367,1.5085 -0.6321,3.0919 -0.5832,4.7454 l 28.2571,0 c 0.0977,2.2887 -0.1222,4.6981 -0.6566,7.228 -0.487,2.53 -1.4123,4.8676 -2.7758,7.0097 -1.313,2.1406 -3.0903,3.895 -5.3301,5.2569 -2.1895,1.4108 -4.9638,2.1177 -8.3228,2.1177 -2.5803,0 -4.9652,-0.487 -7.1563,-1.4612 -2.1406,-0.9725 -4.0155,-2.336 -5.6218,-4.0888 -1.5573,-1.7528 -2.7742,-3.8217 -3.6491,-6.2051 -0.8779,-2.3864 -1.3146,-5.0125 -1.3146,-7.8845 0.0962,-2.8735 0.5115,-5.5256 1.2398,-7.9594 0.7802,-2.4353 1.9238,-4.5271 3.4323,-6.2799 1.5101,-1.7528 3.359,-3.1147 5.5501,-4.0873 2.2383,-0.9741 4.866,-1.4581 7.886,-1.4581 4.2828,0 7.8357,1.0688 10.6589,3.2094 2.8231,2.1421 4.6476,5.3302 5.4752,9.5641 m -5.9867,10.5153 -21.6856,0 c 0.0977,1.4596 0.4137,2.8231 0.9497,4.0873 0.5359,1.3146 1.2657,2.4582 2.191,3.4338 0.9237,0.9711 2.02,1.7269 3.2842,2.2628 1.3146,0.5848 2.7758,0.8749 4.382,0.8749 1.5574,0 2.9681,-0.2901 4.2339,-0.8749 1.3146,-0.5359 2.4353,-1.2917 3.359,-2.2628 0.9741,-0.9268 1.7284,-2.0459 2.2643,-3.3605 0.5833,-1.3146 0.9238,-2.701 1.0215,-4.1606"
   id="path26"
   style="fill:#9a8b79;fill-rule:evenodd;stroke:none" />
        <path
   d="m 204.7061,158.0912 -20.2962,-52.1291 7.0815,0 5.8401,15.6973 22.0505,0 5.6951,-15.6973 7.6662,0 -20.371,52.1291 z m -5.1836,-30.5916 8.8343,24.3133 0.1465,0 8.6892,-24.3133 z"
   id="path28"
   style="fill:#9a8b79;fill-rule:evenodd;stroke:none" />
        <path
   d="m 237.7089,117.8611 -6.2066,0 c 0.0962,-2.3345 0.5833,-4.3316 1.4612,-5.9867 0.8749,-1.6062 2.0429,-2.9208 3.5041,-3.9423 1.4596,-0.9741 3.1392,-1.6779 5.037,-2.1162 1.8979,-0.4382 3.8934,-0.655 5.9882,-0.655 1.8964,0 3.7957,0.1924 5.6951,0.5818 1.9467,0.3404 3.6736,0.9726 5.1821,1.8978 1.5574,0.9237 2.8002,2.1406 3.7255,3.6507 0.9726,1.5085 1.4596,3.4079 1.4596,5.6951 0,1.8001 -0.3664,3.3101 -1.0963,4.527 -0.6809,1.2154 -1.6062,2.2154 -2.7727,2.9941 -1.1207,0.8276 -2.4353,1.4826 -3.9438,1.9712 -1.4612,0.4855 -2.9697,0.8993 -4.527,1.2398 -1.4597,0.3404 -2.9194,0.658 -4.379,0.9481 -1.4612,0.3436 -2.7758,0.7329 -3.9438,1.1696 -1.1696,0.4855 -2.1422,1.0718 -2.9224,1.7513 -0.7283,0.7313 -1.0932,1.6306 -1.0932,2.7024 0,0.9726 0.2428,1.7513 0.7299,2.3361 0.487,0.6336 1.1191,1.1192 1.8978,1.4612 0.7802,0.3893 1.6307,0.6565 2.5559,0.8016 0.9726,0.1465 1.9223,0.2198 2.8476,0.2198 1.0229,0 2.02,-0.1206 2.9941,-0.3649 1.0214,-0.1954 1.9467,-0.5344 2.7742,-1.0214 0.826,-0.4886 1.5085,-1.1452 2.0445,-1.9712 0.5343,-0.7787 0.8519,-1.7772 0.9496,-2.9941 l 6.2051,0 c -0.1466,2.2872 -0.6336,4.1851 -1.4612,5.6951 -0.826,1.5574 -1.9452,2.7742 -3.3575,3.6506 -1.3634,0.9238 -2.9453,1.5574 -4.7469,1.8964 -1.8001,0.3893 -3.7713,0.5863 -5.9134,0.5863 -1.6551,0 -3.3346,-0.2214 -5.0371,-0.6581 -1.655,-0.3893 -3.1651,-1.0214 -4.527,-1.8994 -1.3146,-0.826 -2.4093,-1.9207 -3.2857,-3.2842 -0.8291,-1.3619 -1.2414,-2.9926 -1.2414,-4.892 0,-2.4337 0.6077,-4.3301 1.8246,-5.695 1.2184,-1.362 2.7254,-2.4338 4.5286,-3.211 1.849,-0.7313 3.8445,-1.3161 5.9867,-1.7543 2.1406,-0.3893 4.1117,-0.852 5.9134,-1.3864 1.849,-0.4855 3.3835,-1.1436 4.6004,-1.9726 1.2168,-0.826 1.8245,-2.0429 1.8245,-3.6492 0,-1.1665 -0.2916,-2.1421 -0.8749,-2.9223 -0.5863,-0.7283 -1.3405,-1.2887 -2.2658,-1.678 -0.8749,-0.3893 -1.849,-0.6581 -2.9193,-0.8031 -1.0718,-0.1451 -2.0933,-0.2184 -3.0674,-0.2184 -1.2642,0 -2.5055,0.1207 -3.7224,0.3634 -1.1696,0.2443 -2.2399,0.6337 -3.2125,1.1711 -0.9252,0.5817 -1.6795,1.336 -2.2627,2.2612 -0.5863,0.9742 -0.9008,2.1407 -0.9497,3.5041"
   id="path30"
   style="fill:#9a8b79;fill-rule:evenodd;stroke:none" />
        <path
   d="m 276.1139,143.7084 0,11.3184 -6.2066,0 0,-11.3184 -6.4249,0 0,-5.4752 6.4249,0 0,-24.0217 c 0,-1.7528 0.1695,-3.1666 0.5115,-4.2354 0.3405,-1.0703 0.852,-1.8978 1.533,-2.4811 0.7298,-0.5863 1.655,-0.9985 2.7742,-1.2398 1.168,-0.1969 2.5559,-0.2931 4.1606,-0.2931 l 4.7469,0 0,5.4752 -2.8475,0 c -0.9726,0 -1.7772,0.0244 -2.4094,0.0733 -0.5832,0.0977 -1.0473,0.2672 -1.3878,0.5099 -0.339,0.2428 -0.5833,0.5833 -0.7283,1.0215 -0.0977,0.4397 -0.1466,1.0245 -0.1466,1.7528 l 0,23.4384 7.5196,0 0,5.4752 z"
   id="path32"
   style="fill:#9a8b79;fill-rule:evenodd;stroke:none" />
        <path
   d="m 319.7747,117.9343 -6.1332,0 c -0.5344,-2.4811 -1.6551,-4.3317 -3.3575,-5.5485 -1.6567,-1.2169 -3.7973,-1.8246 -6.4265,-1.8246 -2.0444,0 -3.8201,0.3405 -5.3302,1.0214 -1.5069,0.681 -2.7498,1.5818 -3.7224,2.701 -0.9741,1.1696 -1.6795,2.4842 -2.1177,3.9438 -0.4382,1.5085 -0.6336,3.0919 -0.5848,4.7454 l 28.2556,0 c 0.0977,2.2887 -0.1222,4.6981 -0.6565,7.228 -0.4871,2.53 -1.4108,4.8676 -2.7743,7.0097 -1.3146,2.1406 -3.0918,3.895 -5.3286,5.2569 -2.1926,1.4108 -4.9653,2.1177 -8.3259,2.1177 -2.5803,0 -4.9637,-0.487 -7.1532,-1.4612 -2.1421,-0.9725 -4.0171,-2.336 -5.6233,-4.0888 -1.5574,-1.7528 -2.7742,-3.8217 -3.6506,-6.2051 -0.8765,-2.3864 -1.3131,-5.0125 -1.3131,-7.8845 0.0962,-2.8735 0.5115,-5.5256 1.2413,-7.9594 0.7787,-2.4353 1.9223,-4.5271 3.4308,-6.2799 1.51,-1.7528 3.359,-3.1147 5.55,-4.0873 2.2384,-0.9741 4.8676,-1.4581 7.8846,-1.4581 4.2843,0 7.8357,1.0688 10.6603,3.2094 2.8216,2.1421 4.6477,5.3302 5.4752,9.5641 m -5.9882,10.5153 -21.6841,0 c 0.0962,1.4596 0.4123,2.8231 0.9497,4.0873 0.5359,1.3146 1.2658,2.4582 2.191,3.4338 0.9238,0.9711 2.0185,1.7269 3.2842,2.2628 1.3146,0.5848 2.7758,0.8749 4.3805,0.8749 1.5589,0 2.9697,-0.2901 4.2355,-0.8749 1.3146,-0.5359 2.4337,-1.2917 3.3575,-2.2628 0.9741,-0.9268 1.7284,-2.0459 2.2658,-3.3605 0.5833,-1.3146 0.9237,-2.701 1.0199,-4.1606"
   id="path34"
   style="fill:#9a8b79;fill-rule:evenodd;stroke:none" />
        <path
   d="m 323.6433,143.7084 0,-37.7463 6.2066,0 0,16.7905 c 0,2.4338 0.2427,4.5775 0.7298,6.4265 0.487,1.8994 1.2657,3.5041 2.336,4.8202 1.0704,1.3131 2.4827,2.3101 4.2355,2.9926 1.7512,0.681 3.8705,1.023 6.3516,1.023 l 0,6.5699 c -3.359,0.0962 -6.1318,-0.5863 -8.3228,-2.0459 -2.191,-1.4597 -4.04,-3.7209 -5.55,-6.7883 l -0.145,0 0,7.9578 z"
   id="path36"
   style="fill:#9a8b79;fill-rule:evenodd;stroke:none" />
        <path
   d="m 345.6191,105.9621 6.2066,0 0,37.7463 -6.2066,0 z m 6.2066,52.1291 -6.2066,0 0,-7.5945 6.2066,0 z"
   id="path38"
   style="fill:#9a8b79;fill-rule:evenodd;stroke:none" />
        <path
   d="m 362.3396,117.8611 -6.2065,0 c 0.0977,-2.3345 0.5847,-4.3316 1.4611,-5.9867 0.8749,-1.6062 2.0429,-2.9208 3.5041,-3.9423 1.4597,-0.9741 3.1407,-1.6779 5.0386,-2.1162 1.8963,-0.4382 3.8934,-0.655 5.9882,-0.655 1.8948,0 3.7942,0.1924 5.692,0.5818 1.9483,0.3404 3.6766,0.9726 5.1852,1.8978 1.5573,0.9237 2.8002,2.1406 3.7239,3.6507 0.9741,1.5085 1.4612,3.4079 1.4612,5.6951 0,1.8001 -0.3665,3.3101 -1.0978,4.527 -0.6779,1.2154 -1.6047,2.2154 -2.7727,2.9941 -1.1192,0.8276 -2.4353,1.4826 -3.9423,1.9712 -1.4612,0.4855 -2.9697,0.8993 -4.5271,1.2398 -1.4596,0.3404 -2.9208,0.658 -4.3805,0.9481 -1.4611,0.3436 -2.7757,0.7329 -3.9423,1.1696 -1.1695,0.4855 -2.1421,1.0718 -2.9223,1.7513 -0.7298,0.7313 -1.0947,1.6306 -1.0947,2.7024 0,0.9726 0.2443,1.7513 0.7313,2.3361 0.4871,0.6336 1.1192,1.1192 1.8979,1.4612 0.7787,0.3893 1.6306,0.6565 2.5544,0.8016 0.9741,0.1465 1.9222,0.2198 2.849,0.2198 1.0215,0 2.0185,-0.1206 2.9926,-0.3649 1.0215,-0.1954 1.9467,-0.5344 2.7743,-1.0214 0.8275,-0.4886 1.5085,-1.1452 2.0459,-1.9712 0.5344,-0.7787 0.8505,-1.7772 0.9482,-2.9941 l 6.2065,0 c -0.1465,2.2872 -0.6336,4.1851 -1.4611,5.6951 -0.8276,1.5574 -1.9452,2.7742 -3.3575,3.6506 -1.3635,0.9238 -2.9468,1.5574 -4.7469,1.8964 -1.8017,0.3893 -3.7713,0.5863 -5.915,0.5863 -1.6536,0 -3.3331,-0.2214 -5.037,-0.6581 -1.6551,-0.3893 -3.1636,-1.0214 -4.5271,-1.8994 -1.3131,-0.826 -2.4078,-1.9207 -3.2857,-3.2842 -0.8276,-1.3619 -1.2413,-2.9926 -1.2413,-4.892 0,-2.4337 0.6077,-4.3301 1.8261,-5.695 1.2169,-1.362 2.7254,-2.4338 4.527,-3.211 1.849,-0.7313 3.8446,-1.3161 5.9867,-1.7543 2.1422,-0.3893 4.1133,-0.852 5.915,-1.3864 1.849,-0.4855 3.3819,-1.1436 4.5988,-1.9726 1.2169,-0.826 1.8261,-2.0429 1.8261,-3.6492 0,-1.1665 -0.2917,-2.1421 -0.878,-2.9223 -0.5847,-0.7283 -1.3374,-1.2887 -2.2627,-1.678 -0.8764,-0.3893 -1.849,-0.6581 -2.9208,-0.8031 -1.0704,-0.1451 -2.0933,-0.2184 -3.0659,-0.2184 -1.2658,0 -2.5071,0.1207 -3.724,0.3634 -1.168,0.2443 -2.2383,0.6337 -3.2124,1.1711 -0.9237,0.5817 -1.6795,1.336 -2.2628,2.2612 -0.5848,0.9742 -0.9008,2.1407 -0.9497,3.5041"
   id="path40"
   style="fill:#9a8b79;fill-rule:evenodd;stroke:none" />
        <path
   d="m 392.4945,158.0912 0,-52.1291 6.2066,0 0,14.3095 5.8417,5.4034 12.9216,-19.7129 7.8876,0 -16.0638,24.0201 14.9675,13.7262 -8.3227,0 -17.2319,-16.5005 0,30.8833 z"
   id="path42"
   style="fill:#9a8b79;fill-rule:evenodd;stroke:none" />
        <path
   d="m 482.1542,142.3934 6.9364,0 c -0.3893,2.7757 -1.2169,5.208 -2.4826,7.3013 -1.2657,2.1436 -2.8475,3.9193 -4.7454,5.3317 -1.8994,1.4108 -4.0644,2.4811 -6.4967,3.2109 -2.4353,0.7313 -5.0141,1.0963 -7.7395,1.0963 -3.9926,0 -7.5456,-0.7299 -10.6603,-2.191 -3.0674,-1.4124 -5.6462,-3.3576 -7.7395,-5.8417 -2.0429,-2.4811 -3.6018,-5.4019 -4.6721,-8.761 -1.0719,-3.3101 -1.6078,-6.8616 -1.6078,-10.6603 0,-3.7957 0.4871,-7.3487 1.4597,-10.6588 1.023,-3.3087 2.533,-6.1806 4.5285,-8.6175 1.9956,-2.4322 4.5027,-4.353 7.5197,-5.7653 3.0185,-1.3634 6.5455,-2.0444 10.5886,-2.0444 6.6676,0 11.9245,1.8245 15.7691,5.4752 3.8461,3.6522 6.1088,8.761 6.7898,15.3325 l -6.9364,0 c -0.1466,-2.1422 -0.5847,-4.1362 -1.3146,-5.9868 -0.7298,-1.8505 -1.7512,-3.4567 -3.0659,-4.8186 -1.2642,-1.3146 -2.7986,-2.362 -4.6003,-3.1392 -1.7513,-0.7314 -3.7728,-1.0963 -6.0585,-1.0963 -3.1162,0 -5.7928,0.5848 -8.0326,1.7528 -2.2384,1.1681 -4.0889,2.727 -5.5485,4.6721 -1.4124,1.9971 -2.4582,4.3088 -3.1407,6.9364 -0.681,2.6766 -1.023,5.4997 -1.023,8.4694 0,2.7254 0.342,5.3546 1.023,7.8845 0.6825,2.5315 1.7283,4.7714 3.1407,6.7196 1.4596,1.9941 3.2842,3.5759 5.4767,4.7454 2.2383,1.168 4.9149,1.7513 8.0311,1.7513 3.6492,0 6.7899,-0.9237 9.416,-2.7742 2.6781,-1.8506 4.4064,-4.6248 5.1851,-8.3243"
   id="path44"
   style="fill:#9a8b79;fill-rule:evenodd;stroke:none" />
        <path
   d="m 492.2292,124.7991 c 0,-2.7758 0.3909,-5.3562 1.1696,-7.7411 0.7771,-2.3849 1.9467,-4.4782 3.5041,-6.2783 1.5573,-1.7513 3.4796,-3.1392 5.7668,-4.1606 2.2887,-0.9742 4.9179,-1.4582 7.8861,-1.4582 3.017,0 5.6462,0.484 7.8861,1.4582 2.2872,1.0214 4.211,2.4093 5.7668,4.1606 1.5589,1.8001 2.7254,3.8934 3.5041,6.2783 0.7787,2.3849 1.1695,4.9653 1.1695,7.7411 0,2.7742 -0.3908,5.353 -1.1695,7.7379 -0.7787,2.4353 -1.9452,4.5271 -3.5041,6.2814 -1.5558,1.7986 -3.4796,3.2094 -5.7668,4.2339 -2.2399,1.02 -4.8691,1.533 -7.8861,1.533 -2.9682,0 -5.5974,-0.513 -7.8861,-1.533 -2.2872,-1.0245 -4.2095,-2.4353 -5.7668,-4.2339 -1.5574,-1.7543 -2.727,-3.8461 -3.5041,-6.2814 -0.7787,-2.3849 -1.1696,-4.9637 -1.1696,-7.7379 m 6.573,0 c 0,2.2856 0.2916,4.3071 0.8734,6.0584 0.6336,1.8017 1.4871,3.3117 2.5574,4.5286 1.0703,1.2154 2.3116,2.1406 3.724,2.7743 1.4596,0.6321 2.9941,0.9481 4.5988,0.9481 1.6062,0 3.1163,-0.316 4.5286,-0.9481 1.4596,-0.6337 2.7238,-1.5589 3.7957,-2.7743 1.0703,-1.2169 1.8963,-2.7269 2.4826,-4.5286 0.6336,-1.7513 0.9482,-3.7728 0.9482,-6.0584 0,-2.2888 -0.3146,-4.3332 -0.9482,-6.1349 -0.5863,-1.7512 -1.4123,-3.2368 -2.4826,-4.4537 -1.0719,-1.1681 -2.3361,-2.0689 -3.7957,-2.6995 -1.4123,-0.6351 -2.9224,-0.9497 -4.5286,-0.9497 -1.6047,0 -3.1392,0.3146 -4.5988,0.9497 -1.4124,0.6306 -2.6537,1.5314 -3.724,2.6995 -1.0703,1.2169 -1.9238,2.7025 -2.5574,4.4537 -0.5818,1.8017 -0.8734,3.8461 -0.8734,6.1349"
   id="path46"
   style="fill:#9a8b79;fill-rule:evenodd;stroke:none" />
        <path
   d="m 533.2628,143.7084 0,-37.7463 6.205,0 0,23.5086 c 0,0.7298 0.1711,1.6307 0.5116,2.701 0.3908,1.1207 0.9741,2.191 1.7528,3.214 0.8275,1.0214 1.8719,1.8963 3.1407,2.6292 1.313,0.7283 2.8704,1.0932 4.6706,1.0932 1.4122,0 2.5574,-0.2184 3.4323,-0.655 0.9267,-0.3909 1.6551,-0.9742 2.1909,-1.7544 0.5329,-0.7283 0.9009,-1.6062 1.0948,-2.6292 0.2443,-1.0214 0.3649,-2.1406 0.3649,-3.359 l 0,-24.7484 6.2066,0 0,23.5086 c 0,2.9208 0.8764,5.2569 2.6292,7.0112 1.7512,1.7513 4.1606,2.6262 7.2265,2.6262 1.5116,0 2.7254,-0.2184 3.6522,-0.655 0.9741,-0.4382 1.7283,-1.049 2.2643,-1.8277 0.5343,-0.7283 0.9008,-1.6031 1.0947,-2.6261 0.1939,-1.023 0.2916,-2.1192 0.2916,-3.2888 l 0,-24.7484 6.2051,0 0,27.6692 c 0,1.9483 -0.3161,3.6033 -0.9482,4.9668 -0.5848,1.4108 -1.4368,2.5544 -2.5559,3.4293 -1.0718,0.8794 -2.3834,1.5115 -3.9423,1.9009 -1.5085,0.4367 -3.2124,0.6565 -5.1118,0.6565 -2.4811,0 -4.7699,-0.5588 -6.8631,-1.678 -2.0445,-1.1207 -3.6996,-2.704 -4.9653,-4.7469 -0.7772,2.3361 -2.1162,3.9911 -4.0156,4.9637 -1.8978,0.9742 -4.014,1.4612 -6.3516,1.4612 -5.3057,0 -9.3686,-2.1421 -12.1918,-6.4249 l -0.1465,0 0,5.5485 z"
   id="path48"
   style="fill:#9a8b79;fill-rule:evenodd;stroke:none" />
        <path
   d="m 622.0472,125.1627 c 0,-1.8489 -0.1954,-3.6506 -0.5847,-5.4019 -0.3894,-1.7543 -1.023,-3.3086 -1.8994,-4.6736 -0.8749,-1.362 -2.0429,-2.4582 -3.5041,-3.2858 -1.4108,-0.826 -3.188,-1.2398 -5.3287,-1.2398 -2.1421,0 -3.9682,0.3879 -5.4767,1.1681 -1.5085,0.8275 -2.7498,1.8978 -3.7239,3.2109 -0.9237,1.3146 -1.6047,2.8231 -2.0445,4.5286 -0.4366,1.7513 -0.6565,3.5514 -0.6565,5.4019 0,1.7528 0.1939,3.4797 0.5848,5.1836 0.4382,1.704 1.1192,3.214 2.0444,4.5286 0.9238,1.3619 2.1162,2.4567 3.5759,3.2842 1.4611,0.826 3.2384,1.2413 5.3316,1.2413 1.9941,0 3.721,-0.3893 5.1821,-1.168 1.5101,-0.7802 2.7269,-1.8246 3.6522,-3.1392 0.9726,-1.3146 1.678,-2.8246 2.1162,-4.5285 0.4871,-1.6536 0.7313,-3.3591 0.7313,-5.1104 m -29.2067,18.5449 0,-52.12906 6.2081,0 0,19.41976 0.145,0 c 0.6825,-1.1176 1.5101,-2.0673 2.4827,-2.8475 1.0214,-0.7314 2.0917,-1.3131 3.2139,-1.7513 1.1177,-0.4367 2.2383,-0.7543 3.3575,-0.9482 1.1696,-0.1954 2.2124,-0.2916 3.1407,-0.2916 2.8689,0 5.376,0.51 7.5197,1.5314 2.1894,1.0215 3.9896,2.4078 5.4004,4.1622 1.4612,1.8016 2.533,3.8949 3.2155,6.2798 0.7267,2.3849 1.0947,4.9149 1.0947,7.5914 0,2.6781 -0.368,5.2096 -1.0947,7.5945 -0.7313,2.3849 -1.8261,4.4782 -3.2858,6.2799 -1.4123,1.8474 -3.2139,3.3086 -5.4034,4.3789 -2.1422,1.0703 -4.6737,1.6078 -7.5945,1.6078 -2.6276,0 -5.037,-0.4886 -7.228,-1.4612 -2.1895,-0.9253 -3.7957,-2.4338 -4.8187,-4.5255 l -0.145,0 0,5.1087 z"
   id="path50"
   style="fill:#9a8b79;fill-rule:evenodd;stroke:none" />
        <path
   d="m 656.3621,125.4551 0,-6.3516 c 0,-0.8749 -0.2198,-1.8245 -0.6565,-2.8475 -0.4397,-0.9741 -1.1192,-1.8994 -2.046,-2.7743 -0.9237,-0.8275 -2.1146,-1.5344 -3.5773,-2.1177 -1.4582,-0.5344 -3.211,-0.8031 -5.2569,-0.8031 -0.9237,0 -1.849,0.0977 -2.7727,0.2931 -0.8764,0.1909 -1.6551,0.51 -2.3361,0.9482 -0.6337,0.4397 -1.1695,0.997 -1.6093,1.6795 -0.3878,0.7298 -0.5817,1.6063 -0.5817,2.6277 0,1.5558 0.3405,2.7743 1.0215,3.6522 0.7313,0.9237 1.655,1.6291 2.7742,2.1146 1.1207,0.4902 2.3849,0.8276 3.7972,1.023 1.4123,0.2428 2.8003,0.4382 4.1607,0.5848 1.4123,0.1939 2.7513,0.4138 4.0171,0.6581 1.2642,0.2901 2.2856,0.7283 3.0658,1.313 m 10.0756,-19.3464 0,4.8156 c -0.7298,-0.2428 -1.362,-0.3634 -1.8978,-0.3634 -0.9726,0 -1.5574,0.3405 -1.7544,1.0214 -0.1451,0.681 -0.2184,1.7528 -0.2184,3.214 l 0,19.4198 c 0,2.191 -0.4122,3.9682 -1.2397,5.3302 -0.8276,1.3619 -1.9238,2.4108 -3.2858,3.1391 -1.3634,0.7803 -2.8963,1.2902 -4.5988,1.533 -1.6566,0.2443 -3.3376,0.3664 -5.0385,0.3664 -2.0933,0 -4.0904,-0.2198 -5.9883,-0.6565 -1.8978,-0.4367 -3.5773,-1.1696 -5.037,-2.191 -1.4612,-0.9741 -2.6277,-2.2628 -3.5041,-3.869 -0.8764,-1.6062 -1.3634,-3.5789 -1.4611,-5.9165 l 6.2066,0 c 0.145,2.7758 1.0962,4.6507 2.8475,5.6233 1.7528,1.023 3.9423,1.533 6.5715,1.533 0.9726,0 1.9467,-0.0718 2.9208,-0.2184 1.0214,-0.1465 1.9207,-0.4366 2.6994,-0.8748 0.8276,-0.4398 1.4857,-1.0734 1.9727,-1.8994 0.5359,-0.8291 0.8031,-1.9223 0.8031,-3.2858 0,-1.1695 -0.342,-2.0673 -1.023,-2.7009 -0.681,-0.5833 -1.6047,-1.0474 -2.7727,-1.3879 -1.1695,-0.2916 -2.5345,-0.5359 -4.0904,-0.7298 -1.5085,-0.1466 -3.1147,-0.3894 -4.8171,-0.7299 -1.6078,-0.2931 -3.1881,-0.6565 -4.7454,-1.0947 -1.5116,-0.4397 -2.875,-1.0963 -4.0904,-1.9727 -1.1681,-0.826 -2.1177,-1.9207 -2.8476,-3.2857 -0.7298,-1.362 -1.0962,-3.1163 -1.0962,-5.2554 0,-1.8978 0.3175,-3.5315 0.9497,-4.8919 0.6825,-1.3162 1.5833,-2.4094 2.7024,-3.2858 1.1681,-0.8291 2.5071,-1.4123 4.0157,-1.7513 1.5084,-0.3908 3.1146,-0.5832 4.8186,-0.5832 2.6292,0 5.063,0.4367 7.2998,1.31 2.2872,0.9253 4.2843,2.4124 5.9883,4.4538 0,-2.0414 0.4625,-3.5285 1.3863,-4.4538 0.9757,-0.8733 2.2643,-1.31 3.8721,-1.31 1.8993,0 3.3803,0.3145 4.4522,0.9482"
   id="path52"
   style="fill:#9a8b79;fill-rule:evenodd;stroke:none" />
        <path
   d="m 669.2851,143.7084 0,-37.7463 6.205,0 0,21.3191 c 0,1.7024 0.2199,3.2613 0.6581,4.6706 0.4855,1.4627 1.1924,2.7269 2.1193,3.7988 0.9237,1.0688 2.0673,1.8978 3.4292,2.4826 1.4138,0.5848 3.0674,0.8749 4.9653,0.8749 2.3849,0 4.2583,-0.681 5.6218,-2.0445 1.3634,-1.3619 2.0444,-3.2124 2.0444,-5.5485 l 0,-25.553 6.2066,0 0,24.8247 c 0,2.0429 -0.2199,3.8919 -0.6566,5.547 -0.3908,1.7055 -1.0977,3.1636 -2.1177,4.3805 -1.0245,1.2184 -2.3605,2.1666 -4.0156,2.8475 -1.6551,0.6825 -3.7238,1.023 -6.2065,1.023 -5.5974,0 -9.6878,-2.2887 -12.2651,-6.8631 l -0.1465,0 0,5.9867 z"
   id="path54"
   style="fill:#9a8b79;fill-rule:evenodd;stroke:none" />
        <path
   d="m 721.7819,100.9974 16.4271,42.7116 -6.5714,0 -10.5871,-30.8863 -0.145,0 -11.0253,30.8863 -7.0097,0 14.9691,-37.528 -2.5574,-6.35313 c -0.5833,-1.11764 -1.2643,-1.97114 -2.0445,-2.55287 -0.7771,-0.5863 -1.8001,-0.87945 -3.0659,-0.87945 -0.6321,0 -1.2657,0.10077 -1.8993,0.29315 -0.5818,0.19542 -1.165,0.39087 -1.7498,0.5863 l 0,-5.69662 c 0.6794,-0.24276 1.3864,-0.41223 2.1177,-0.50995 0.7283,-0.09772 1.4596,-0.14659 2.188,-0.14659 1.4138,0 2.6307,0.19392 3.6506,0.58326 1.0245,0.34049 1.9482,0.92678 2.7758,1.7528 0.8764,0.77716 1.6551,1.80014 2.3361,3.06588 0.7298,1.26728 1.4596,2.82465 2.191,4.67362"
   id="path56"
   style="fill:#9a8b79;fill-rule:evenodd;stroke:none" />
        <path
   d="m 405.9647,486.8178 -17.7601,0 0.684,-25.6706 -21.5436,13.8667 -8.9411,-15.0057 22.4612,-12.8422 -22.4612,-12.8422 8.9411,-15.0148 21.5436,13.3032 -0.684,-25.1102 17.7601,0 -0.6871,25.1102 21.4322,-13.3032 9.0572,15.0148 -22.5758,12.8422 22.5758,12.8422 -9.0572,15.0057 -21.4322,-13.8667 z"
   id="path58"
   style="fill:#fa8b3f;fill-rule:nonzero;stroke:none" />
        <path
   d="m 429.7096,397.6658 c -3.3255,1.281 -3.8064,1.933 -7.0998,0.4367 -6.2906,-2.8384 -12.8208,-5.1775 -19.519,-6.8677 -24.8721,-6.2295 -56.1081,-0.1405 -67.2738,25.8645 -10.5901,24.6309 6.431,51.6955 25.2248,66.6966 16.9479,13.5323 39.6259,21.1421 61.4321,19.1343 12.6574,-1.1757 24.5041,-6.7776 31.4329,-17.7784 16.3844,-24.0675 2.5208,-58.809 -17.8685,-75.7798 3.7865,-6.2172 8.364,-12.0726 11.4359,-18.5846 -5.921,2.2903 -11.8421,4.5912 -17.7646,6.8784 m 37.4822,91.0694 c -5.118,8.3472 -12.2208,13.9385 -20.3298,17.5128 8.0082,-5.4508 14.5171,-13.2422 17.7173,-23.9087 0.0138,-0.0366 -7.2753,19.2961 -28.2433,25.0019 -22.0352,5.9913 -46.9898,2.1712 -67.06,-10.9352 -13.7415,-8.9686 -28.0174,-22.9971 -36.3539,-40.0243 2.4674,9.5412 7.4831,18.4105 13.9141,26.2752 -8.7747,-8.1639 -16.2165,-17.6654 -21.5711,-27.996 -13.9324,-26.8722 -6.231,-58.7586 21.9222,-72.61 24.924,-12.2681 56.9356,-5.8722 80.7252,6.1256 9.9748,-3.7697 20.9756,-5.2691 31.4207,-7.8494 l -11.7811,23.5575 c 21.1406,22.2154 38.9602,55.369 19.6397,84.8506"
   id="path60"
   style="fill:#fa8b3f;fill-rule:evenodd;stroke:none" />
        <path
   d="m 142.8037,329.7709 c -6.3562,5.0859 -13.0086,7.622 -19.9297,7.622 -11.9261,0 -21.1085,-3.6568 -27.57307,-10.9734 -6.43712,-7.2417 -9.65568,-17.6608 -9.65568,-31.2618 0,-26.5822 12.80554,-39.8702 38.42885,-39.8702 2.8613,0 6.3654,0.8458 10.4909,2.5238 4.2201,1.7421 6.9715,3.4904 8.2387,5.2432 z m 0,-97.2622 0,7.7456 c -2.4719,-2.6964 -6.6478,-5.0874 -12.5291,-7.1502 -5.8845,-1.9971 -11.9674,-2.9742 -18.2594,-2.9849 -17.81359,0 -31.86045,5.6523 -42.12839,16.9478 -10.17176,11.2925 -15.26527,27.0387 -15.26527,47.257 0,20.1954 5.84014,36.6317 17.5372,49.2831 11.77797,12.7292 26.48901,19.0854 44.15146,19.0854 9.7091,0 18.5357,-1.9879 26.4935,-5.9577 l 0,51.1931 29.8328,7.1563 0,-182.5755 z"
   id="path62"
   style="fill:#004793;fill-rule:evenodd;stroke:none" />
        <path
   d="m 201.9134,232.5093 0,103.3406 -16.3524,0 0,24.4629 46.547,0 0,-127.8035 z"
   id="path64"
   style="fill:#004793;fill-rule:evenodd;stroke:none" />
        <path
   d="m 278.5622,315.4465 c 0,-7.5593 2.0643,-13.6437 6.202,-18.2563 4.2125,-4.5347 9.8664,-6.7959 16.9463,-6.7959 7.0692,0 12.517,2.2169 16.3508,6.6661 3.811,4.4523 5.7226,10.5779 5.7226,18.3861 0,6.4463 -2.0597,11.8925 -6.1959,16.3341 -4.0705,4.4675 -9.3503,6.6936 -15.8775,6.6936 -6.854,0 -12.4162,-2.1421 -16.702,-6.4448 -4.3011,-4.2934 -6.4463,-9.8236 -6.4463,-16.5829 m -29.8297,-115.7461 18.8426,23.2659 c 10.4313,-9.5564 22.0459,-14.3324 34.8499,-14.3324 8.6022,0 15.6669,1.2795 21.2475,3.8247 5.5546,2.5483 8.3426,6.06 8.3578,10.5077 0,7.5426 -6.179,11.3291 -18.5128,11.3291 -3.3255,0 -8.3121,-0.3939 -14.9019,-1.1909 -6.6096,-0.7909 -11.5871,-1.194 -14.9171,-1.2032 -20.5298,0 -30.7932,7.3578 -30.7932,22.0902 0,4.211 1.707,8.3503 5.1347,12.3979 3.4079,4.0522 7.3945,7.0433 11.9261,8.9564 -14.5614,9.4618 -21.8382,22.8719 -21.8382,40.2091 0,13.6911 5.011,24.9729 15.0408,33.8927 10.0175,8.9884 22.3436,13.4789 36.9814,13.4789 11.4573,0 21.0519,-2.1468 28.7594,-6.4357 l 11.7016,13.6117 20.6474,-18.7433 -14.2072,-10.3764 c 4.924,-7.4815 7.396,-16.3111 7.396,-26.4921 0,-14.5675 -4.4492,-26.2096 -13.3613,-34.9598 -8.8312,-8.6847 -20.0107,-13.0148 -33.5354,-13.0148 -2.1345,0 -5.0049,0.1909 -8.5869,0.6031 l -4.895,0.7131 c -0.5603,0 -2.7025,-0.8825 -6.4448,-2.6262 -3.6582,-1.6871 -5.4859,-3.4247 -5.4859,-5.2538 0,-3.1819 2.7437,-4.7759 8.2251,-4.7759 2.478,0 6.6142,0.6 12.4116,1.7863 5.8142,1.2047 10.7855,1.8002 14.9187,1.8002 29.0449,0 43.5498,-11.6528 43.5651,-34.966 0,-12.8849 -5.8127,-22.9941 -17.4273,-30.3061 -11.61,-7.4067 -25.6141,-11.0985 -41.9955,-11.0985 -19.574,0 -37.2745,5.7683 -53.1032,17.3081"
   id="path66"
   style="fill:#004793;fill-rule:evenodd;stroke:none" />
        <path
   d="m 382.8274,232.5093 0,103.3406 -16.357,0 0,24.4629 46.5425,0 0,-127.8035 z"
   id="path68"
   style="fill:#004793;fill-rule:evenodd;stroke:none" />
        <path
   d="m 511.7514,232.3841 0,10.7382 c -4.2247,-3.5789 -10.0251,-6.6402 -17.4226,-9.1824 -7.396,-2.5421 -14.2057,-3.8109 -20.4001,-3.8201 -29.6922,0 -44.5087,15.7493 -44.5087,47.26 l 0,82.933 29.8191,0 0,-80.6656 c 0,-16.3891 7.3654,-24.579 22.0872,-24.579 6.7547,0 13.0467,1.7437 18.8502,5.2401 5.8127,3.501 9.6557,7.5593 11.5749,12.1735 l 0,87.831 29.8359,0 0,-127.9287 z"
   id="path70"
   style="fill:#004793;fill-rule:evenodd;stroke:none" />
        <path
   d="m 708.3401,232.5093 0,80.0732 c 0,16.789 -7.5166,25.1652 -22.562,25.1836 -4.4492,0 -8.7503,-1.3254 -12.8819,-3.9454 -4.1362,-2.6246 -7.0402,-5.6523 -8.7259,-9.0648 l 0,-92.2466 -29.8175,0 0,84.7285 c 0,6.2707 -1.9543,11.2481 -5.8569,14.9141 -3.8888,3.7316 -9.387,5.5958 -16.4577,5.6142 -3.7377,0 -7.8387,-1.4047 -12.3017,-4.1851 -4.3759,-2.788 -7.5578,-5.8447 -9.5366,-9.1961 l 0,-91.8756 -29.8374,0 0,127.8035 20.5314,0 6.0828,-11.2268 c 8.277,9.0739 18.9694,13.6071 32.1078,13.6071 16.9311,0 29.7091,-4.6126 38.2961,-13.8361 3.7315,4.2079 8.9487,7.5456 15.6347,10.016 6.6768,2.5452 13.3628,3.8201 20.0398,3.8201 14.2437,0 25.304,-4.0934 33.1734,-12.2849 7.9624,-8.1136 11.9367,-19.2884 11.9367,-33.5277 l 0,-84.3712 z"
   id="path72"
   style="fill:#004793;fill-rule:evenodd;stroke:none" />
        <path
   d="m 723.1088,382.4952 c 0.8108,0 1.4688,0.113 1.9879,0.3374 0.507,0.2245 0.768,0.765 0.768,1.6124 0,0.3893 -0.0961,0.6977 -0.2748,0.9237 -0.1771,0.2244 -0.4031,0.3894 -0.6871,0.5298 -0.2824,0.1069 -0.5893,0.197 -0.9344,0.2336 -0.3512,0.0519 -0.6825,0.0855 -0.9939,0.0855 l -2.3483,0 0,-3.7224 z m 0.0336,5.8921 c 1.7711,0 3.1346,-0.3192 4.0873,-0.9421 0.9482,-0.6336 1.4292,-1.707 1.4292,-3.2338 0,-0.6428 -0.0962,-1.2093 -0.284,-1.6597 -0.197,-0.4687 -0.4627,-0.8443 -0.797,-1.1253 -0.3375,-0.2962 -0.7192,-0.5237 -1.1772,-0.6703 -0.4443,-0.1649 -0.9207,-0.2656 -1.4383,-0.3038 l 3.756,-6.1547 -2.9162,0 -3.4262,6.0173 -1.7498,0 0,-6.0173 -2.7972,0 0,14.0897 z m -9.0373,-11.0192 c 0.4901,-1.2093 1.1619,-2.2643 2.02,-3.1407 0.8413,-0.881 1.8444,-1.5757 3.0002,-2.0627 1.1528,-0.4963 2.3895,-0.736 3.7148,-0.736 1.2947,0 2.5254,0.2397 3.6766,0.736 1.1574,0.487 2.159,1.1817 3.0079,2.0627 0.8519,0.8764 1.5329,1.9314 2.0322,3.1407 0.5039,1.2093 0.7512,2.5162 0.7512,3.9545 0,1.4398 -0.2473,2.7483 -0.7512,3.9469 -0.4993,1.1909 -1.1803,2.2414 -2.0322,3.0994 -0.8489,0.8764 -1.8505,1.5605 -3.0079,2.0521 -1.1512,0.4916 -2.3819,0.7451 -3.6766,0.7451 -1.3253,0 -2.562,-0.2535 -3.7148,-0.7451 -1.1558,-0.4916 -2.1589,-1.1757 -3.0002,-2.0521 -0.8581,-0.858 -1.5299,-1.9085 -2.02,-3.0994 -0.5008,-1.1986 -0.739,-2.5071 -0.739,-3.9469 0,-1.4383 0.2382,-2.7452 0.739,-3.9545 m -3.1102,9.1213 c 0.6993,1.5406 1.646,2.8674 2.8369,3.9407 1.1802,1.0933 2.5635,1.9361 4.1239,2.5178 1.5544,0.6 3.1744,0.9039 4.8844,0.9039 1.7085,0 3.3315,-0.3039 4.8843,-0.9039 1.5605,-0.5817 2.9392,-1.4245 4.1179,-2.5178 1.191,-1.0733 2.1376,-2.4001 2.849,-3.9407 0.6994,-1.5391 1.0551,-3.2598 1.0551,-5.1515 0,-1.936 -0.3557,-3.6614 -1.0551,-5.208 -0.7114,-1.5467 -1.658,-2.8629 -2.849,-3.9561 -1.1787,-1.1008 -2.5574,-1.9436 -4.1179,-2.5299 -1.5528,-0.5772 -3.1758,-0.8627 -4.8843,-0.8627 -1.71,0 -3.33,0.2855 -4.8844,0.8627 -1.5604,0.5863 -2.9437,1.4291 -4.1239,2.5299 -1.1909,1.0932 -2.1376,2.4094 -2.8369,3.9561 -0.7053,1.5466 -1.0672,3.272 -1.0672,5.208 0,1.8917 0.3619,3.6124 1.0672,5.1515"
   id="path74"
   style="fill:#004793;fill-rule:nonzero;stroke:none" />
      </g>
    </g>
  </g>
</svg>