<?xml version="1.0" encoding="UTF-8" standalone="no"?>
<!-- Created with Inkscape (http://www.inkscape.org/) -->
<svg
   xmlns:dc="http://purl.org/dc/elements/1.1/"
   xmlns:cc="http://creativecommons.org/ns#"
   xmlns:rdf="http://www.w3.org/1999/02/22-rdf-syntax-ns#"
   xmlns:svg="http://www.w3.org/2000/svg"
   xmlns="http://www.w3.org/2000/svg"
   xmlns:sodipodi="http://sodipodi.sourceforge.net/DTD/sodipodi-0.dtd"
   xmlns:inkscape="http://www.inkscape.org/namespaces/inkscape"
   width="125"
   height="50"
   id="svg2628"
   sodipodi:version="0.32"
   inkscape:version="0.46"
   version="1.0"
   sodipodi:docname="EA.svg"
   inkscape:output_extension="org.inkscape.output.svg.inkscape">
  <defs
     id="defs2630">
    <inkscape:perspective
       sodipodi:type="inkscape:persp3d"
       inkscape:vp_x="0 : 526.18109 : 1"
       inkscape:vp_y="0 : 1000 : 0"
       inkscape:vp_z="744.09448 : 526.18109 : 1"
       inkscape:persp3d-origin="372.04724 : 350.78739 : 1"
       id="perspective2636" />
  </defs>
  <sodipodi:namedview
     id="base"
     pagecolor="#ffffff"
     bordercolor="#666666"
     borderopacity="1.0"
     gridtolerance="10000"
     guidetolerance="10"
     objecttolerance="10"
     inkscape:pageopacity="0.0"
     inkscape:pageshadow="2"
     inkscape:zoom="4.5977498"
     inkscape:cx="55.353164"
     inkscape:cy="23.264376"
     inkscape:document-units="px"
     inkscape:current-layer="layer1"
     showgrid="false"
     inkscape:window-width="640"
     inkscape:window-height="669"
     inkscape:window-x="161"
     inkscape:window-y="161" />
  <metadata
     id="metadata2633">
    <rdf:RDF>
      <cc:Work
         rdf:about="">
        <dc:format>image/svg+xml</dc:format>
        <dc:type
           rdf:resource="http://purl.org/dc/dcmitype/StillImage" />
      </cc:Work>
    </rdf:RDF>
  </metadata>
  <g
     inkscape:label="Layer 1"
     inkscape:groupmode="layer"
     id="layer1"
     transform="translate(-175.12634,-703.38352)">
    <path
       d="M 249.64946,705.11915 L 232.46071,732.28915 L 213.62321,732.28915 L 217.96446,725.6054 L 229.68321,725.6054 L 233.93696,718.8354 L 207.80821,718.8354 L 203.55446,725.6054 L 209.80446,725.6054 L 201.29697,739.06039 L 236.36821,739.06039 L 249.64946,717.8804 L 254.51071,725.6054 L 250.34321,725.6054 L 246.09071,732.28915 L 258.76447,732.28915 L 263.01821,739.06039 L 271.09071,739.06039 L 249.64946,705.11915"
       style="fill:#000000;fill-opacity:1;fill-rule:evenodd;stroke:none"
       id="path2416" />
    <path
       d="M 244.00696,705.37914 L 216.31571,705.37914 L 212.06196,712.1504 L 239.75321,712.06415 L 244.00696,705.37914"
       style="fill:#000000;fill-opacity:1;fill-rule:evenodd;stroke:none"
       id="path2418" />
    <path
       d="M 178.81446,750.0854 L 178.81446,747.2204 C 178.81446,746.7004 178.72821,746.17915 178.46696,745.65915 L 182.02571,745.65915 L 181.59196,746.61415 C 181.15821,746.35289 180.55071,746.26665 179.85571,746.26665 L 179.76946,746.26665 L 179.76946,748.3504 L 181.76572,748.3504 L 181.15821,749.1304 C 180.81071,749.04415 180.37696,748.9579 179.76946,748.8704 L 179.76946,751.04039 C 179.85571,751.04039 179.94196,751.04039 180.02946,751.04039 C 180.81071,751.04039 181.59196,750.86665 182.37321,750.60665 L 181.93946,751.56164 L 178.46696,751.56164 C 178.72821,751.12665 178.81446,750.60665 178.81446,750.0854"
       style="fill:#000000;fill-opacity:1;fill-rule:evenodd;stroke:none"
       id="path2420" />
    <path
       d="M 187.06071,747.2204 L 187.06071,751.04039 C 188.10196,750.95415 188.88321,750.77914 189.57822,750.51914 C 189.40446,750.86665 189.23071,751.21415 189.05821,751.56164 L 185.84571,751.56164 C 186.01946,751.12665 186.10571,750.60665 186.10571,750.0854 L 186.10571,747.2204 C 186.10571,746.7004 186.01946,746.17915 185.84571,745.65915 L 187.40821,745.65915 C 187.14821,746.17915 187.06071,746.7004 187.06071,747.2204"
       style="fill:#000000;fill-opacity:1;fill-rule:evenodd;stroke:none"
       id="path2422" />
    <path
       d="M 193.05071,750.0854 L 193.05071,747.2204 C 193.05071,746.7004 192.96321,746.17915 192.70322,745.65915 L 196.26196,745.65915 L 195.82822,746.61415 C 195.39446,746.35289 194.78696,746.26665 194.09196,746.26665 L 194.00571,746.26665 L 194.00571,748.3504 L 196.00321,748.3504 L 195.48197,749.1304 C 195.13321,749.04415 194.61321,748.9579 194.00571,748.8704 L 194.00571,751.04039 C 194.09196,751.04039 194.17821,751.04039 194.26572,751.04039 C 195.13321,751.04039 195.91446,750.86665 196.60947,750.60665 L 196.17571,751.56164 L 192.70322,751.56164 C 192.96321,751.12665 193.05071,750.60665 193.05071,750.0854"
       style="fill:#000000;fill-opacity:1;fill-rule:evenodd;stroke:none"
       id="path2424" />
    <path
       d="M 203.20696,751.6479 C 202.33821,751.6479 201.64446,751.38665 201.12321,751.04039 C 200.34321,750.4329 199.90821,749.65165 199.90821,748.69664 C 199.90821,747.74165 200.34321,746.9604 201.12321,746.35289 C 201.81821,745.83164 202.68696,745.65915 203.64072,745.65915 C 204.16196,745.65915 204.68321,745.65915 205.29071,745.83164 L 205.20446,746.87414 C 204.76946,746.52665 204.07446,746.35289 203.46821,746.35289 C 201.99196,746.35289 201.03696,747.2204 201.03696,748.69664 C 201.03696,750.0854 201.99196,750.86665 203.38071,750.86665 C 204.07446,750.86665 204.76946,750.69415 205.37696,750.17165 L 205.37696,751.21415 C 204.59571,751.47415 203.81446,751.6479 203.20696,751.6479"
       style="fill:#000000;fill-opacity:1;fill-rule:evenodd;stroke:none"
       id="path2426" />
    <path
       d="M 208.58946,746.7004 L 208.93696,745.65915 L 213.88446,745.65915 L 213.45072,746.7004 C 212.92946,746.43915 212.40821,746.35289 211.62821,746.35289 L 211.62821,750.0854 C 211.62821,750.60665 211.71446,751.12665 211.97446,751.56164 L 210.41196,751.56164 C 210.58571,751.12665 210.67197,750.60665 210.67197,750.0854 L 210.67197,746.35289 C 209.80446,746.35289 209.19696,746.43915 208.58946,746.7004"
       style="fill:#000000;fill-opacity:1;fill-rule:evenodd;stroke:none"
       id="path2428" />
    <path
       d="M 218.31196,746.26665 C 219.26696,746.26665 219.78696,746.7004 219.78696,747.39414 C 219.78696,748.08915 219.26696,748.5229 218.31196,748.69664 L 218.31196,746.26665 z M 218.31196,750.0854 L 218.31196,748.8704 C 219.61446,750.69415 220.56821,751.56164 220.82946,751.56164 L 221.78446,751.56164 C 220.91571,750.77914 220.13446,749.8254 219.52696,748.8704 C 220.39571,748.6104 220.82946,748.08915 220.82946,747.39414 C 220.82946,746.26665 219.96196,745.65915 218.05071,745.65915 L 217.00946,745.65915 C 217.18321,746.17915 217.26946,746.7004 217.26946,747.2204 L 217.26946,750.0854 C 217.26946,750.60665 217.18321,751.12665 217.00946,751.56164 L 218.57196,751.56164 C 218.31196,751.12665 218.31196,750.60665 218.31196,750.0854"
       style="fill:#000000;fill-opacity:1;fill-rule:evenodd;stroke:none"
       id="path2430" />
    <path
       d="M 228.29572,750.95415 C 227.51322,750.95415 226.90571,750.60665 226.47196,750.0854 C 226.12446,749.56415 225.95072,749.04415 225.95072,748.5229 C 225.95072,747.2204 226.81946,746.35289 228.03446,746.35289 C 228.81571,746.35289 229.50946,746.7004 229.94446,747.30665 C 230.20446,747.74165 230.37821,748.2629 230.37821,748.7829 C 230.37821,750.0854 229.50946,750.95415 228.29572,750.95415 z M 231.41947,748.6104 C 231.41947,747.74165 231.07321,746.9604 230.46571,746.43915 C 229.85697,745.91915 229.07572,745.65915 228.20821,745.65915 C 227.16571,745.65915 226.21196,746.0054 225.60446,746.7004 C 225.08321,747.2204 224.82321,747.8279 224.82321,748.6104 C 224.82321,749.56415 225.25696,750.4329 225.95072,750.95415 C 226.64571,751.38665 227.33946,751.6479 228.12071,751.6479 C 228.98821,751.6479 229.76946,751.38665 230.37821,750.86665 C 231.07321,750.25914 231.41947,749.47789 231.41947,748.6104"
       style="fill:#000000;fill-opacity:1;fill-rule:evenodd;stroke:none"
       id="path2432" />
    <path
       d="M 236.54196,751.56164 L 235.06571,751.56164 C 235.32572,751.12665 235.41196,750.60665 235.41196,750.0854 L 235.41196,746.52665 L 234.63196,745.65915 L 236.28071,745.65915 C 236.28071,745.7454 236.28071,745.7454 236.28071,745.7454 C 236.28071,746.0054 236.45446,746.17915 236.62821,746.43915 L 239.57946,750.17165 L 239.57946,747.2204 C 239.57946,746.7004 239.49196,746.17915 239.31946,745.65915 L 240.79572,745.65915 C 240.53446,746.17915 240.53446,746.7004 240.53446,747.2204 L 240.53446,750.0854 C 240.53446,750.69415 240.53446,751.12665 240.62196,751.56164 L 239.31946,751.56164 C 239.23197,751.30165 239.14571,751.12665 239.05821,750.95415 L 236.28071,747.5679 L 236.28071,750.0854 C 236.28071,750.60665 236.36821,751.12665 236.54196,751.56164"
       style="fill:#000000;fill-opacity:1;fill-rule:evenodd;stroke:none"
       id="path2434" />
    <path
       d="M 245.82946,747.2204 L 245.82946,750.0854 C 245.82946,750.60665 245.91696,751.12665 246.17821,751.56164 L 244.61571,751.56164 C 244.78696,751.12665 244.87446,750.60665 244.87446,750.0854 L 244.87446,747.2204 C 244.87446,746.7004 244.78696,746.17915 244.61571,745.65915 L 246.17821,745.65915 C 245.91696,746.17915 245.82946,746.7004 245.82946,747.2204"
       style="fill:#000000;fill-opacity:1;fill-rule:evenodd;stroke:none"
       id="path2436" />
    <path
       d="M 253.03446,751.6479 C 252.25321,751.6479 251.55946,751.38665 250.95072,751.04039 C 250.16947,750.4329 249.73571,749.65165 249.73571,748.69664 C 249.73571,747.74165 250.16947,746.9604 250.95072,746.35289 C 251.64696,745.83164 252.51447,745.65915 253.55446,745.65915 C 253.98946,745.65915 254.51071,745.65915 255.11821,745.83164 L 255.11821,746.87414 C 254.59696,746.52665 253.98946,746.35289 253.29572,746.35289 C 251.90571,746.35289 250.95072,747.2204 250.95072,748.69664 C 250.95072,750.0854 251.81946,750.86665 253.20946,750.86665 C 253.98946,750.86665 254.59696,750.69415 255.29196,750.17165 L 255.29196,751.21415 C 254.42321,751.47415 253.72946,751.6479 253.03446,751.6479"
       style="fill:#000000;fill-opacity:1;fill-rule:evenodd;stroke:none"
       id="path2438" />
    <path
       d="M 264.75322,749.04415 L 265.62196,747.39414 L 266.40321,749.04415 L 264.75322,749.04415 z M 264.40571,749.73789 L 266.75072,749.73789 L 267.18446,750.69415 C 267.27196,750.86665 267.35697,751.04039 267.35697,751.30165 C 267.35697,751.38665 267.35697,751.47415 267.35697,751.56164 L 269.00696,751.56164 C 268.66071,751.12665 268.31322,750.69415 268.13946,750.34665 L 265.70946,745.57164 L 263.19196,750.17165 C 262.84571,750.69415 262.58321,751.21415 262.23696,751.56164 L 263.79821,751.56164 C 263.71196,751.56164 263.71196,751.47415 263.71196,751.38665 C 263.71196,751.12665 263.79821,750.86665 263.97321,750.51914 L 264.40571,749.73789"
       style="fill:#000000;fill-opacity:1;fill-rule:evenodd;stroke:none"
       id="path2440" />
    <path
       d="M 273.26196,746.26665 C 274.21697,746.26665 274.82446,746.7004 274.82446,747.39414 C 274.82446,748.08915 274.30321,748.5229 273.26196,748.69664 L 273.26196,746.26665 z M 273.26196,750.0854 L 273.26196,748.8704 C 274.64946,750.69415 275.60447,751.56164 275.86571,751.56164 L 276.82072,751.56164 C 275.95322,750.77914 275.17071,749.8254 274.56322,748.8704 C 275.43071,748.6104 275.86571,748.08915 275.86571,747.39414 C 275.86571,746.26665 274.91071,745.65915 273.08821,745.65915 L 272.04571,745.65915 C 272.21947,746.17915 272.30571,746.7004 272.30571,747.2204 L 272.30571,750.0854 C 272.30571,750.60665 272.21947,751.12665 272.04571,751.56164 L 273.60821,751.56164 C 273.34821,751.12665 273.26196,750.60665 273.26196,750.0854"
       style="fill:#000000;fill-opacity:1;fill-rule:evenodd;stroke:none"
       id="path2442" />
    <path
       d="M 279.33696,746.7004 L 279.59821,745.65915 L 284.54571,745.65915 L 284.11196,746.7004 C 283.67821,746.43915 283.07072,746.35289 282.37696,746.35289 L 282.37696,750.0854 C 282.37696,750.60665 282.46321,751.12665 282.63572,751.56164 L 281.07322,751.56164 C 281.24822,751.12665 281.33446,750.60665 281.33446,750.0854 L 281.33446,746.35289 C 280.55321,746.35289 279.85821,746.43915 279.33696,746.7004"
       style="fill:#000000;fill-opacity:1;fill-rule:evenodd;stroke:none"
       id="path2444" />
    <path
       d="M 289.23447,750.86665 C 289.84071,750.86665 290.18946,750.60665 290.18946,750.17165 C 290.18946,749.56415 289.66697,749.30415 288.97447,748.9579 C 288.10571,748.5229 287.67071,748.17539 287.67071,747.39414 C 287.67071,746.43915 288.53947,745.65915 289.66697,745.65915 C 290.01446,745.65915 290.44946,745.65915 290.88322,745.83164 L 290.79571,746.87414 C 290.53571,746.52665 290.18946,746.35289 289.66697,746.35289 C 289.14571,746.35289 288.71196,746.7004 288.71196,747.2204 C 288.71196,747.74165 289.14571,747.91539 289.75446,748.2629 C 290.18946,748.5229 290.53571,748.6104 290.79571,748.9579 C 291.14321,749.21789 291.22947,749.56415 291.22947,749.99789 C 291.22947,750.95415 290.44946,751.6479 288.97447,751.6479 C 288.62572,751.6479 288.27947,751.56164 287.93071,751.47415 L 287.93071,750.0854 C 288.27947,750.60665 288.71196,750.86665 289.23447,750.86665"
       style="fill:#000000;fill-opacity:1;fill-rule:evenodd;stroke:none"
       id="path2446" />
    <path
       d="M 294.26821,745.7454 L 294.26821,746.0054 L 293.66197,746.0054 L 293.66197,747.5679 L 293.22697,747.5679 L 293.22697,746.0054 L 292.61946,746.0054 L 292.61946,745.7454 L 294.26821,745.7454 z M 295.22447,745.7454 L 295.74571,746.9604 L 296.17946,745.7454 L 296.78571,745.7454 L 296.78571,747.5679 L 296.35197,747.5679 L 296.35197,746.09164 L 295.83071,747.5679 L 295.57072,747.5679 L 295.05071,746.09164 L 295.05071,747.5679 L 294.61696,747.5679 L 294.61696,745.7454 L 295.22447,745.7454"
       style="fill:#000000;fill-opacity:1;fill-rule:evenodd;stroke:none"
       id="path2448" />
  </g>
</svg>
