<?xml version="1.0" encoding="UTF-8" standalone="no"?>
<!DOCTYPE svg PUBLIC "-//W3C//DTD SVG 20010904//EN"
"http://www.w3.org/TR/2001/REC-SVG-20010904/DTD/svg10.dtd">
<!-- Generator: Adobe Illustrator 10.0.3, SVG Export Plug-In . SVG Version: 3.0.0 Build 77)  -->
<svg
   width="180.793"
   height="179.856"
   viewBox="0 0 180.793 179.856"
   overflow="visible"
   enable-background="new 0 0 180.793 179.856"
   xml:space="preserve"
   id="svg1061"
   sodipodi:version="0.32"
   inkscape:version="0.39"
   sodipodi:docname="klogo-large-lineart.svg"
   sodipodi:docbase="/home/tackat/Documents/vingoni"
   xmlns="http://www.w3.org/2000/svg"
   xmlns:cc="http://web.resource.org/cc/"
   xmlns:inkscape="http://www.inkscape.org/namespaces/inkscape"
   xmlns:sodipodi="http://sodipodi.sourceforge.net/DTD/sodipodi-0.dtd"
   xmlns:rdf="http://www.w3.org/1999/02/22-rdf-syntax-ns#"
   xmlns:xml="http://www.w3.org/XML/1998/namespace"
   xmlns:a="http://ns.adobe.com/AdobeSVGViewerExtensions/3.0/"
   xmlns:dc="http://purl.org/dc/elements/1.1/"
   xmlns:xlink="http://www.w3.org/1999/xlink"><defs
   id="defs1093">


                <linearGradient
   id="XMLID_1_"
   gradientUnits="userSpaceOnUse"
   x1="90.397"
   y1="123.7812"
   x2="90.397"
   y2="21.4445">
                        <stop
   offset="0.0000000"
   style="stop-color:#ffffff;stop-opacity:1.0000000;"
   id="stop1071" />






                        <stop
   offset="1.0000000"
   style="stop-color:#ffffff;stop-opacity:0.0000000;"
   id="stop1073" />






                        <a:midPointStop
   offset="0"
   style="stop-color:#FFFFFF"
   id="midPointStop1075" />






                        <a:midPointStop
   offset="0.5"
   style="stop-color:#FFFFFF"
   id="midPointStop1077" />






                        <a:midPointStop
   offset="1"
   style="stop-color:#000000"
   id="midPointStop1079" />






                </linearGradient>










        


</defs>
<path
   style="fill:#ffffff;fill-rule:evenodd;fill-opacity:1.0000000;"
   d="M 20.305000,7.4880000 L 160.48900,7.4880000 C 167.54600,7.4880000 173.30500,13.248000 173.30500,20.304000 L 173.30500,159.55200 C 173.30500,166.60900 167.54500,172.44100 160.48900,172.44100 L 20.305000,172.44100 C 13.248000,172.44100 7.4890000,166.60900 7.4890000,159.55200 L 7.4890000,20.304000 C 7.4880000,13.248000 13.248000,7.4880000 20.305000,7.4880000 z "
   id="path1575" />





<metadata
   id="metadata1092">
  <rdf:RDF
   id="RDF1094">
    <cc:Work
   rdf:about=""
   id="Work1095">
      <dc:format
   id="format1096">image/svg+xml</dc:format>





      <dc:type
   id="type1098"
   rdf:resource="http://purl.org/dc/dcmitype/StillImage" />





    </cc:Work>





  </rdf:RDF>





</metadata>





<sodipodi:namedview
   id="base"
   pagecolor="#ffffff"
   bordercolor="#666666"
   borderopacity="1.0"
   inkscape:pageopacity="0.0"
   inkscape:pageshadow="2"
   inkscape:zoom="2.2006468"
   inkscape:cx="62.889101"
   inkscape:cy="79.439938"
   inkscape:window-width="825"
   inkscape:window-height="589"
   inkscape:window-x="13"
   inkscape:window-y="91"
   inkscape:current-layer="svg1061" />






        <path
   fill-rule="evenodd"
   clip-rule="evenodd"
   fill="#0068C6"
   d="M20.305,7.488h140.184c7.057,0,12.816,5.76,12.816,12.816    v139.248c0,7.057-5.76,12.889-12.816,12.889H20.305c-7.057,0-12.816-5.832-12.816-12.889V20.304    C7.488,13.248,13.248,7.488,20.305,7.488z M18.721,0h143.352c10.297,0,18.721,8.424,18.721,18.72v142.416    c0,10.297-8.424,18.721-18.721,18.721H18.721C8.424,179.856,0,171.433,0,161.136V18.72C0,8.424,8.424,0,18.721,0z"
   id="path1065"
   style="fill:#0068C6;fill-rule:evenodd;" />





<path
   fill-rule="evenodd"
   clip-rule="evenodd"
   fill="#0068C6"
   d="M20.592,10.296h139.609c5.615,0,10.223,4.608,10.223,10.296    v138.745c0,5.615-4.607,10.223-10.223,10.223H20.592c-5.615,0-10.223-4.607-10.223-10.223V20.592    C10.369,14.904,14.977,10.296,20.592,10.296z"
   id="path1067"
   style="fill:#0068C6;fill-rule:evenodd;" />








<path
   fill-rule="evenodd"
   clip-rule="evenodd"
   fill="#FFFFFF"
   d="M 76.020451,20.674017 L 100.12054,18.919896 C 100.12054,33.410457 100.12054,47.824752 100.12054,62.239047 C 109.73007,47.748486 120.40733,33.334191 132.45631,19.377493 L 158.31053,25.936378 C 146.71914,38.825351 134.89683,53.163380 125.44089,67.501409 C 134.51656,82.754631 144.50742,96.712388 157.85399,112.57468 L 132.91603,119.97249 C 118.95933,104.33794 110.57006,89.313516 100.12054,73.145101 L 100.12054,116.08292 L 76.020451,119.13462 L 76.020451,20.674017 L 76.020451,20.674017 z "
   id="path1084"
   style="fill:#ffffff;fill-rule:evenodd;" />





<path
   fill-rule="evenodd"
   clip-rule="evenodd"
   fill="#FFFFFF"
   d="M 100.35040,139.80274 C 114.45963,136.82730 110.87512,132.55746 122.39025,139.26888 L 129.86538,144.53018 C 131.23923,145.21658 132.53470,146.43789 133.83122,145.14031 C 136.65307,142.47100 139.39865,139.72647 142.22049,137.05716 C 143.44075,135.75958 142.22049,134.30946 141.61037,133.31906 L 141.53304,133.31906 L 136.11921,125.61724 L 132.53364,126.91483 C 131.61951,127.52496 130.39819,127.21883 129.33152,125.77084 L 121.39985,115.39759 C 114.07830,125.54098 102.25705,132.09986 88.834217,132.09986 C 66.718104,132.09986 48.719302,114.10318 48.719302,91.984948 C 48.719302,76.274130 57.794970,62.622496 70.987947,56.063610 L 70.987947,46.835411 C 70.530351,47.064209 70.073813,47.216742 69.690364,47.369274 C 64.505328,49.504725 64.199204,50.496184 55.733666,45.615153 L 48.260647,40.276526 C 46.886797,39.666397 45.590273,38.369873 44.294809,39.666397 C 41.472963,42.411977 38.727383,45.157557 35.905537,47.903137 C 34.685279,49.123394 35.981803,50.648717 36.515666,51.640176 L 42.233505,59.724384 L 46.429201,65.673140 C 47.039329,66.512068 47.267069,66.588334 46.963063,67.198463 C 46.582792,67.808591 46.276668,68.342454 45.895338,68.952583 C 40.327912,78.562113 44.217483,79.324774 32.319970,82.451685 L 23.244303,83.977007 C 21.872572,84.434604 20.042186,84.434604 19.964860,86.341256 C 19.964860,90.230828 19.888594,94.120400 19.888594,98.009971 C 19.812328,99.764092 21.796306,99.917683 22.940298,100.22169 L 32.627153,101.97581 L 39.872434,103.27339 C 40.863893,103.42698 41.090573,103.27339 41.320430,104.03499 C 44.295868,116.92397 48.184380,113.87438 41.700702,125.08550 L 36.439399,132.63479 C 35.753004,133.93237 34.531687,135.22889 35.829271,136.52436 C 38.574850,139.34620 41.243105,142.09390 43.988685,144.91575 C 45.208943,146.13389 46.734265,144.83948 47.726784,144.30562 L 55.809932,138.58566 L 61.834955,134.46623 C 62.674941,133.77984 62.751207,133.55210 63.361336,133.93237 C 75.410323,141.48377 75.867919,136.06782 79.376160,148.80532 L 81.054015,157.87887 C 81.511611,159.25272 81.587877,161.00684 83.418264,161.08310 C 87.307836,161.08310 91.273674,161.08310 95.163245,161.08310 C 96.917366,161.08310 97.070957,159.09913 97.298696,157.95513 L 98.976551,148.19413 L 100.12054,141.02300 C 100.19681,140.33660 100.19681,140.02942 100.35040,139.80274 z M 114.91723,133.70145 C 114.84096,133.77560 114.76364,133.77560 114.68737,133.77560 C 114.76364,133.77560 114.76364,133.70145 114.84096,133.70145 L 114.91723,133.70145 z M 101.11094,139.49662 C 100.88320,139.57288 100.57708,139.65021 100.34934,139.80274 C 100.50081,139.64915 100.73067,139.57288 101.11094,139.49662 z "
   id="path1086"
   style="fill:#ffffff;fill-rule:evenodd;" />





<path
   fill-rule="evenodd"
   clip-rule="evenodd"
   fill="#FFFFFF"
   d="M 89.139282,129.20175 C 101.79840,129.20175 112.93325,122.79434 119.64467,113.03122 L 119.18707,112.26962 C 111.33166,120.96289 102.56212,126.60658 89.063016,126.91271 C 72.284471,127.21671 55.277129,112.19335 55.199803,92.515634 C 55.048330,79.855459 60.919762,71.313655 70.910622,65.212366 L 70.910622,59.873738 C 59.699504,66.203825 52.073952,78.330137 52.073952,92.135362 C 52.073952,112.49735 68.698905,129.20175 89.139282,129.20175 z "
   id="path1088"
   style="fill:#ffffff;fill-rule:evenodd;" />






</svg>
