<?xml version="1.0" encoding="iso-8859-1"?>
<!-- Generator: Adobe Illustrator 14.0.0, SVG Export Plug-In . SVG Version: 6.00 Build 43363)  -->
<!DOCTYPE svg PUBLIC "-//W3C//DTD SVG 1.1//EN" "http://www.w3.org/Graphics/SVG/1.1/DTD/svg11.dtd">
<svg version="1.1" id="Layer_1" xmlns="http://www.w3.org/2000/svg" xmlns:xlink="http://www.w3.org/1999/xlink" x="0px" y="0px"
	 width="250px" height="54px" viewBox="0 0 250 54" style="enable-background:new 0 0 250 54;" xml:space="preserve">
<g>
	<path style="fill:#FFFFFF;" d="M46.949,27.346c0,10.742-8.71,19.453-19.454,19.453S8.042,38.088,8.042,27.346
		c0-10.746,8.709-19.454,19.453-19.454S46.949,16.6,46.949,27.346"/>
	<path style="fill:#005DAA;" d="M27.474,4.522c12.579,0,22.481,10.134,22.481,22.477c0,12.416-10.067,22.478-22.481,22.478
		C15.062,49.478,5,39.415,5,27C5,14.583,15.062,4.522,27.474,4.522 M27.424,31.713l-6.287-20.862l-8.141,26.71h1.527
		c0,0,1.027-4.646,2.697-7.421c0.909-1.507,2.31-2.739,4.183-2.705c1.319,0.026,2.462,0.747,3.889,2.743
		c0.858,1.195,2.179,4.244,2.179,4.244s1.322-3.045,2.183-4.244c1.423-1.996,2.566-2.717,3.889-2.743
		c1.871-0.034,3.275,1.198,4.18,2.708c1.671,2.771,2.697,7.418,2.697,7.418h1.531l-8.146-26.71l-6.286,20.862l-0.045,0.037
		L27.424,31.713z"/>
	<polygon style="fill:#005DAA;" points="64.969,34.55 69.368,19.576 76.948,19.576 78.86,25.975 84.361,19.548 92.405,19.548 
		88.222,34.535 82.138,34.556 84.361,26.825 77.304,34.556 74.314,34.556 72.139,26.285 69.688,34.556 	"/>
	<polygon style="fill:#005DAA;" points="118.507,19.544 137.186,19.576 136.06,24.412 129.649,24.412 127.014,34.55 121.104,34.556 
		123.562,24.453 117.247,24.453 	"/>
	<path style="fill:#005DAA;" d="M168.593,19.574v3.477h0.009l-0.729,2.9h6.404c0,0,1.555-0.269,1.641-1.692
		c0.074-1.252-1.091-1.167-1.091-1.167l-6.234-0.022v-3.494l9.646-0.002c0,0,4.13,0.311,3.725,3.884
		c-0.414,3.567-4.211,4.707-4.211,4.707s-0.227,0.227-0.048,0.364c0.181,0.13,1.595,0.395,1.771,1.734
		c0.181,1.336-0.462,2.309-0.462,2.716c0,0.399,0.041,1.2,0.547,1.556h-6.093c0,0-1.089-0.167-0.993-1.291
		c0.091-1.108,0.14-2.086,0.14-2.086s-0.091-1.162-1.726-1.025l-4.453-0.046l-1.272,4.463h-5.587l4.253-14.976H168.593z"/>
	<polygon style="fill:#005DAA;" points="210.919,19.574 216.64,19.574 213.87,30.433 223.281,30.433 222.188,34.563 207.011,34.563 
			"/>
	<polygon style="fill:#005DAA;" points="241.567,19.561 245,34.556 239.05,34.556 238.416,31.957 238.399,31.906 231.188,31.906 
		231.163,31.932 229.42,34.55 224.385,34.556 234.558,19.561 236.532,23.982 233.579,28.347 233.665,28.382 237.49,28.382 
		237.559,28.376 236.532,23.982 234.558,19.561 	"/>
	<path style="fill:#005DAA;" d="M105.736,22.892c1.814,0,3.602,0.896,3.883,2.201c0.864,4.169-3.579,5.955-3.061,5.69
		c-2.557,1.27-6.441,0.863-6.899-1.764c-0.431-2.528,1.52-5.016,3.158-5.61C103.942,23.007,104.872,22.833,105.736,22.892
		l0.013-0.038l0.023-3.888c-1.177,0.022-2.499,0.169-3.546,0.374c-4.479,0.858-10.131,4.932-9.132,10.087
		c0.836,4.354,6.747,6.695,13.373,5.415c6.209-1.191,10.278-5.979,9.403-10.224c-0.844-4.104-5.704-5.651-10.099-5.651v3.36
		L105.736,22.892z"/>
	<path style="fill:#005DAA;" d="M149.171,22.892c1.813,0,3.608,0.896,3.872,2.201c0.875,4.169-3.568,5.955-3.044,5.69
		c-2.56,1.27-6.45,0.863-6.903-1.764c-0.438-2.528,1.512-5.016,3.157-5.61C147.376,23.007,148.313,22.833,149.171,22.892
		l0.015-0.038l0.022-3.888c-1.171,0.022-2.499,0.169-3.548,0.374c-4.479,0.858-10.135,4.932-9.139,10.087
		c0.839,4.354,6.76,6.695,13.375,5.415c6.216-1.191,10.288-5.979,9.411-10.224c-0.842-4.104-5.702-5.651-10.1-5.651v3.36
		L149.171,22.892z"/>
	<path style="fill:#005DAA;" d="M196.39,22.854c1.813,0.099,3.593,0.934,3.865,2.239c0.867,4.169-3.583,5.955-3.046,5.69
		c-2.563,1.27-6.448,0.863-6.905-1.764c-0.438-2.528,1.512-5.016,3.157-5.61C194.812,22.921,195.337,22.785,196.39,22.854
		l0.025-3.888c-1.172,0.022-2.49,0.169-3.551,0.374c-4.471,0.858-10.122,4.932-9.134,10.087c0.839,4.354,6.758,6.695,13.375,5.415
		c6.213-1.191,10.285-5.979,9.404-10.224c-0.838-4.104-5.7-5.651-10.095-5.651v3.36L196.39,22.854z"/>
</g>
</svg>
