<?xml version="1.0" encoding="utf-8"?>
<!-- Generator: Adobe Illustrator 14.0.0, SVG Export Plug-In . SVG Version: 6.00 Build 43363)  -->
<!DOCTYPE svg PUBLIC "-//W3C//DTD SVG 1.1//EN" "http://www.w3.org/Graphics/SVG/1.1/DTD/svg11.dtd">
<svg version="1.1" id="Layer_1" xmlns="http://www.w3.org/2000/svg" xmlns:xlink="http://www.w3.org/1999/xlink" x="0px" y="0px"
	 width="300px" height="75px" viewBox="0 0 300 75" enable-background="new 0 0 300 75" xml:space="preserve">
<path fill="#FFFFFF" d="M293.267,23.896c-2.49-2.49-5.663-3.807-9.167-3.807h-9.353c-7.031,0-13.125,2.529-18.111,7.516
	c-0.669,0.668-1.284,1.36-1.866,2.07c-4.328-5.321-11.591-9.566-22.637-9.566c-8.345,0-15.008,2.433-19.829,7.208
	c-0.099-0.104-0.184-0.211-0.283-0.312c-2.594-2.581-5.889-3.945-9.527-3.945h-6.301v-6.181c0-3.63-1.357-6.917-3.928-9.501
	c-2.583-2.599-5.871-3.972-9.505-3.972c-3.659,0-6.957,1.342-9.535,3.879l-0.009,0.012c-2.596,2.565-3.969,5.881-3.969,9.587
	l0.021-0.515c-0.102,1.299-0.27,3.779-0.358,6.962c-0.884-0.177-1.796-0.272-2.732-0.272h-6.301v-6.181
	c0-3.634-1.359-6.922-3.931-9.506c-2.58-2.594-5.867-3.967-9.502-3.967c-3.439,0-6.549,1.198-9.051,3.447
	c-2.505-2.286-5.605-3.503-9.021-3.503c-3.64,0-6.933,1.367-9.521,3.953l-0.006,0.005c-2.581,2.586-3.947,5.877-3.947,9.514
	c0,1.276,0.178,2.508,0.51,3.683c-1.363-0.48-2.813-0.74-4.335-0.74c-3.522,0-6.706,1.325-9.205,3.831
	c-1.813,1.813-2.982,3.992-3.502,6.39c-0.521-2.403-1.697-4.585-3.515-6.4c-2.503-2.499-5.688-3.82-9.211-3.82
	c-3.593,0-6.82,1.348-9.332,3.902c-1.782,1.819-2.931,3.981-3.454,6.339c-0.517-2.462-1.711-4.677-3.563-6.496
	c-2.493-2.45-5.663-3.746-9.163-3.746c-2.239,0-4.338,0.534-6.214,1.557c-0.084-0.089-0.157-0.182-0.244-0.269
	c-2.59-2.577-5.886-3.942-9.527-3.942H30.443v-0.232c0-3.634-1.359-6.922-3.936-9.509c-2.567-2.59-5.856-3.964-9.498-3.964
	c-3.663,0-6.962,1.342-9.536,3.883L7.468,7.294C4.871,9.859,3.5,13.177,3.5,16.884v27.352c0,7.441,2.674,13.889,7.949,19.162
	c5.274,5.275,11.72,7.95,19.162,7.95h13.556c3.64,0,6.931-1.366,9.519-3.952c0.811-0.807,1.483-1.691,2.05-2.625
	c4.812,4.347,10.565,6.577,17.149,6.577c4.634,0,8.871-1.182,12.694-3.423c3.852,2.241,8.104,3.423,12.738,3.423
	c6.988,0,13.05-2.492,18.031-7.387c0.634,1.238,1.463,2.388,2.493,3.425c2.598,2.594,5.891,3.962,9.53,3.962
	c3.638,0,6.929-1.368,9.517-3.957c1.234-1.233,2.181-2.633,2.845-4.149c4.852,5.302,11.526,8.105,19.311,8.105h6.155
	c3.643,0,6.934-1.368,9.521-3.955c0.947-0.947,1.73-1.989,2.342-3.106c4.75,4.623,11.039,7.062,18.298,7.062h6.155
	c3.641,0,6.932-1.366,9.521-3.952c0.811-0.812,1.488-1.698,2.057-2.637c4.906,4.243,11.081,6.568,17.608,6.587
	c10.258,0.253,16.438-2.583,19.973-5.282c0.381,0.511,0.79,1.007,1.254,1.472c2.49,2.493,5.662,3.812,9.171,3.812
	c3.511,0,6.683-1.32,9.173-3.817c2.484-2.488,3.802-5.658,3.802-9.167V46.04c0.696,0,9.026-0.001,9.026-0.001
	c3.501,0,6.673-1.313,9.165-3.801c2.499-2.494,3.817-5.666,3.817-9.173S295.763,26.387,293.267,23.896 M244.156,44.307
	c-0.055,0.009-0.111,0.005-0.166,0.016l0.287-0.048C244.232,44.282,244.201,44.3,244.156,44.307 M231.779,71.349
	c-0.027,0-0.052-0.001-0.079-0.001c-0.032-0.001-0.063,0-0.098,0L231.779,71.349z"/>
<path fill="#33CCFF" d="M44.164,37.436c1.881,0,3.497-0.673,4.842-2.015c1.346-1.344,2.018-2.957,2.018-4.837
	c0-1.881-0.672-3.493-2.023-4.836c-1.35-1.344-2.969-2.017-4.856-2.017H23.824v-6.852c0-1.883-0.669-3.494-2.006-4.835
	c-1.332-1.347-2.939-2.018-4.807-2.018c-1.925,0-3.556,0.66-4.891,1.977c-1.335,1.319-2.003,2.946-2.003,4.881v27.351
	c0,5.648,2.003,10.475,6.013,14.481c4.007,4.009,8.833,6.011,14.479,6.011h13.557c1.883,0,3.494-0.671,4.839-2.014
	c1.346-1.341,2.018-2.957,2.018-4.837c0-1.881-0.672-3.492-2.018-4.836c-1.345-1.344-2.961-2.018-4.842-2.018h-13.56
	c-1.883,0-3.485-0.66-4.804-1.978c-1.319-1.324-1.977-2.928-1.977-4.815v-6.794H44.164z M111.073,26.384
	c-1.757,0-3.268,0.628-4.522,1.89c-1.257,1.256-1.887,2.768-1.887,4.529v12.762c0,1.767-0.614,3.262-1.849,4.496
	c-1.229,1.235-2.728,1.849-4.489,1.849c-1.709,0-3.184-0.614-4.414-1.849c-1.231-1.234-1.849-2.729-1.849-4.496V32.803
	c0-1.761-0.629-3.273-1.891-4.529c-1.26-1.262-2.771-1.89-4.533-1.89c-1.813,0-3.35,0.644-4.612,1.926
	c-1.258,1.285-1.89,2.807-1.89,4.569v12.687c0,1.767-0.614,3.262-1.849,4.496c-1.231,1.235-2.702,1.849-4.414,1.849
	c-1.759,0-3.257-0.614-4.491-1.849c-1.229-1.234-1.847-2.729-1.847-4.496V32.803c0-1.813-0.628-3.335-1.886-4.57
	c-1.255-1.233-2.762-1.849-4.525-1.849c-1.756,0-3.268,0.616-4.521,1.849c-1.259,1.234-1.886,2.753-1.886,4.566v12.757
	c0,5.284,1.872,9.802,5.619,13.55c3.749,3.749,8.267,5.622,13.546,5.622c4.83,0,9.058-1.634,12.679-4.904
	c3.673,3.27,7.925,4.904,12.754,4.904c5.281,0,9.796-1.874,13.543-5.622c3.749-3.748,5.621-8.267,5.621-13.55V32.799
	c0-1.761-0.628-3.271-1.884-4.528C114.343,27.012,112.834,26.384,111.073,26.384z M128.371,9.969c-1.884,0-3.494,0.671-4.84,2.016
	c-1.341,1.343-2.013,2.955-2.013,4.837c0,1.878,0.672,3.494,2.013,4.835c1.346,1.344,2.956,2.018,4.84,2.018
	c1.88,0,3.492-0.674,4.835-2.018c1.347-1.341,2.016-2.957,2.016-4.835c0-1.882-0.669-3.494-2.016-4.837
	C131.863,10.64,130.251,9.969,128.371,9.969z M128.371,28.744c-1.884,0-3.494,0.672-4.84,2.017
	c-1.341,1.344-2.013,2.958-2.013,4.843v22.265c0,1.883,0.672,3.499,2.013,4.843c1.346,1.346,2.956,2.017,4.84,2.017
	c1.88,0,3.492-0.671,4.835-2.017c1.347-1.344,2.016-2.959,2.016-4.843V35.604c0-1.885-0.669-3.499-2.016-4.843
	C131.863,29.417,130.251,28.744,128.371,28.744z M166.195,43.385c1.884,0,3.497-0.672,4.843-2.015
	c1.348-1.342,2.019-2.957,2.019-4.837c0-1.879-0.674-3.492-2.021-4.834c-1.353-1.344-2.974-2.016-4.858-2.016h-12.922V16.879
	c0-1.883-0.666-3.494-2.002-4.835c-1.338-1.347-2.938-2.018-4.81-2.018c-1.924,0-3.555,0.66-4.89,1.977
	c-1.335,1.319-2.002,2.946-2.002,4.881c0,0-2.532,32.417,6.01,41.832c3.81,4.2,8.837,6.011,14.481,6.011h6.154
	c1.884,0,3.498-0.671,4.842-2.014c1.346-1.341,2.017-2.957,2.017-4.837c0-1.881-0.671-3.492-2.019-4.836
	c-1.346-1.344-2.959-2.018-4.843-2.018h-6.156c-1.886,0-3.485-0.66-4.804-1.978c-1.32-1.324-1.24-5.66-1.24-5.66H166.195z
	 M202.511,43.385c1.881,0,3.497-0.672,4.842-2.015c1.347-1.342,2.021-2.957,2.021-4.837c0-1.879-0.676-3.492-2.025-4.834
	c-1.35-1.344-2.971-2.016-4.855-2.016h-12.922V16.879c0-1.883-0.669-3.494-2.002-4.835c-1.338-1.347-2.939-2.018-4.811-2.018
	c-1.923,0-3.553,0.66-4.889,1.977c-1.335,1.319-2.003,2.946-2.003,4.881c0,0-2.531,32.417,6.012,41.832
	c3.808,4.2,8.834,6.011,14.48,6.011h6.155c1.88,0,3.495-0.671,4.839-2.014c1.346-1.341,2.021-2.957,2.021-4.837
	c0-1.881-0.675-3.492-2.021-4.836c-1.345-1.344-2.961-2.018-4.842-2.018h-6.158c-1.884,0-3.483-0.66-4.804-1.978
	c-1.319-1.324-1.241-5.66-1.241-5.66H202.511z M288.59,28.58c-1.248-1.246-2.743-1.87-4.49-1.87h-9.351
	c-5.239,0-9.717,1.859-13.433,5.575c-3.717,3.718-5.573,8.196-5.573,13.435v12.647c0,1.748,0.624,3.243,1.869,4.49
	c1.246,1.25,2.743,1.871,4.485,1.871c1.745,0,3.239-0.621,4.485-1.872c1.247-1.248,1.869-2.747,1.869-4.492V45.709
	c0-1.749,0.609-3.234,1.834-4.456c1.222-1.224,2.705-1.835,4.454-1.835h9.358c1.745,0,3.241-0.623,4.489-1.868
	c1.249-1.247,1.875-2.743,1.875-4.486S289.837,29.826,288.59,28.58z M232.132,26.727c-20.773,0-20.382,17.964-20.382,17.964
	c0,5.65,1.539,10.018,5.545,14.025c4.011,4.008,9.092,6.012,14.483,6.012c14.82,0.396,19.979-6.542,19.37-10.433
	c-0.667-3.281-3.891-3.844-5.957-3.463c-3.06,0.427-5.439,3.2-10.634,3.161c-9.445-0.405-8.712-4.651-8.712-4.651h20.774
	c4.664,0,6.716-1.554,6.716-5.938C253.336,37.893,248.388,26.727,232.132,26.727z M225.983,40.786c0-4.383,6.855-4.383,6.855-4.383
	s6.785,0,6.785,4.383H225.983z"/>
</svg>
